<svg height="600" id="sbv1" width="600" xmlns="http://www.w3.org/2000/svg" xmlns:svg="http://www.w3.org/2000/svg" xmlns:xlink="http://www.w3.org/1999/xlink">
	<title id="sbv-title">The graph of SBV boxplot</title>
	<desc id="sbv-desc">This graph was generated by SBV which was written by Peng. E-mail is aipeng0520@163.com</desc>
	<defs id="defs2">
		<clipPath clipPathUnits="UserSpaceOnUse" id="xy_coord_limit" style="evenodd">
			<rect height="507.88" width="521.02" x="58.98" y="41.14" />
		</clipPath>
		<style type="text/css"><![CDATA[svg {
fill: none;
stroke-width: 1;
stroke: #000000;
fill-opacity: 1;
}

text {
font-family: Arial;
font-style: normal;
fill: #000000;
fill-opacity: 1;
font-weight: normal;
stroke-width: 0;
font-size: 12px;
}

text.subtitle {
font-size: 14px;
font-weight: bold;
}

text.freq {
font-size: 14px;
font-weight: bold;
font-family: Georgia;
}

text.title {
font-weight: bold;
font-size: 18px;
}

path {
fill: none;
stroke: #000000;
stroke-width: 1;
}

line.bgline {
stroke: #ffffff;
stroke-width: 2;
stroke-opacity: 1;
}

line.mark {
stroke: #000000;
stroke-width: 2;
}

line {
stroke-width: 1;
stroke: #000000;
}

line.axis {
fill: #000000;
stroke: #000000;
stroke-width: 1;
}

rect {
stroke-width: 0;
}

]]></style>
	</defs>
	<g class="ggplot2" id="ggplot23">
		<rect class="background" height="507.88" style="fill: #dddddd; stroke-width: 0" width="521.02" x="58.98" y="41.14" />
		<g class="border" id="g4" />
		<g class="axis" transform="translate(58.98,549.02)">
			<line class="bgline" x1="173.67" x2="173.67" y1="0" y2="-507.88" />
			<text style="font-size:12px;font-weight:normal;font-style:normal;fill:#000000;" x="67.83" y="12.76">nameA</text>
			<line class="bgline" x1="347.35" x2="347.35" y1="0" y2="-507.88" />
			<text style="font-style:normal;fill:#000000;font-weight:normal;font-size:12px;" x="241.51" y="12.76">nameB</text>
			<line class="bgline" x1="521.02" x2="521.02" y1="0" y2="-507.88" />
			<text style="font-size:12px;font-weight:normal;font-style:normal;fill:#000000;" x="414.84" y="12.76">nameC</text>
		</g>
		<g class="axis" transform="translate(58.98,549.02) rotate(-90)">
			<line class="tick" x1="8.06" x2="8.06" y1="0" y2="-8" />
			<line class="bgline" x1="8.06" x2="8.06" y1="0" y2="521.02" />
			<text style="font-size:12px;font-weight:normal;fill:#000000;font-style:normal;" x="4.725" y="-12">0</text>
			<line class="tick" x1="88.68" x2="88.68" y1="0" y2="-8" />
			<line class="bgline" x1="88.68" x2="88.68" y1="0" y2="521.02" />
			<text style="fill:#000000;font-style:normal;font-weight:normal;font-size:12px;" x="82.01" y="-12">20</text>
			<line class="tick" x1="169.29" x2="169.29" y1="0" y2="-8" />
			<line class="bgline" x1="169.29" x2="169.29" y1="0" y2="521.02" />
			<text style="font-weight:normal;font-size:12px;font-style:normal;fill:#000000;" x="162.62" y="-12">40</text>
			<line class="tick" x1="249.91" x2="249.91" y1="0" y2="-8" />
			<line class="bgline" x1="249.91" x2="249.91" y1="0" y2="521.02" />
			<text style="font-style:normal;fill:#000000;font-weight:normal;font-size:12px;" x="243.24" y="-12">60</text>
			<line class="tick" x1="330.53" x2="330.53" y1="0" y2="-8" />
			<line class="bgline" x1="330.53" x2="330.53" y1="0" y2="521.02" />
			<text style="font-style:normal;fill:#000000;font-weight:normal;font-size:12px;" x="323.86" y="-12">80</text>
			<line class="tick" x1="411.14" x2="411.14" y1="0" y2="-8" />
			<line class="bgline" x1="411.14" x2="411.14" y1="0" y2="521.02" />
			<text style="fill:#000000;font-style:normal;font-size:12px;font-weight:normal;" x="401.13" y="-12">100</text>
			<line class="tick" x1="491.76" x2="491.76" y1="0" y2="-8" />
			<line class="bgline" x1="491.76" x2="491.76" y1="0" y2="521.02" />
			<text style="font-size:12px;font-weight:normal;fill:#000000;font-style:normal;" x="481.75" y="-12">120</text>
		</g>
		<g class="labs">
			<text class="subtitle" x="289.175" y="576">test x lab</text>
			<text class="subtitle" transform="rotate(-90,34.22,325.395)" x="34.22" y="325.395">test y lab</text>
			<text class="title" x="285.01" y="37.14">test title</text>
		</g>
		<g class="main">
			<rect height="52.4003" style="fill: #ff6666; stroke: #ff0000; stroke-width: 1" width="104.204" x="93.7147" y="432.127" />
			<line style="stroke: #ff0000; stroke-width: 2" x1="93.7147" x2="197.9187" y1="468.4041" y2="468.4041" />
			<line style="stroke: #ff0000; stroke-width: 1" x1="145.8167" x2="145.8167" y1="432.127" y2="387.7883" />
			<line style="stroke: #ff0000; stroke-width: 1" x1="145.8167" x2="145.8167" y1="484.5273" y2="512.7429" />
			<rect height="72.5543" style="fill: #66ff66; stroke: #ff0000; stroke-width: 1" width="104.204" x="267.388" y="154.0022" />
			<line style="stroke: #ff0000; stroke-width: 2" x1="267.388" x2="371.592" y1="202.3717" y2="202.3717" />
			<line style="stroke: #ff0000; stroke-width: 1" x1="319.49" x2="319.49" y1="154.0022" y2="57.2632" />
			<line style="stroke: #ff0000; stroke-width: 1" x1="319.49" x2="319.49" y1="226.5565" y2="278.9568" />
			<circle cx="319.49" cy="403.9114" r="2" style="fill: #000" />
			<rect height="60.4619" style="fill: #6666ff; stroke: #ff0000; stroke-width: 1" width="104.204" x="441.0613" y="331.3571" />
			<line style="stroke: #ff0000; stroke-width: 2" x1="441.0613" x2="545.2653" y1="355.5419" y2="355.5419" />
			<line style="stroke: #ff0000; stroke-width: 1" x1="493.1633" x2="493.1633" y1="331.3571" y2="266.8644" />
			<line style="stroke: #ff0000; stroke-width: 1" x1="493.1633" x2="493.1633" y1="391.819" y2="411.973" />
		</g>
	</g>
</svg>