<svg height="800" id="sbv1" width="1000" xmlns="http://www.w3.org/2000/svg" xmlns:svg="http://www.w3.org/2000/svg" xmlns:xlink="http://www.w3.org/1999/xlink">
	<title id="sbv-title">The graph of SBV heatmap</title>
	<desc id="sbv-desc">This graph was generated by SBV which was written by Peng. E-mail is aipeng0520@163.com</desc>
	<defs id="defs2">
		<symbol class="symbol" id="symbol6" viewBox="0 0 10.8 10.8">
			<circle cx="5.4" cy="5.4" r="4.4" style="fill: #fb6a4a; stroke: #000000; stroke-width: 1" />
		</symbol>
		<symbol class="symbol" id="symbol7" viewBox="0 0 10.8 10.8">
			<polygon points="5.4,1 6.3879,4.0403 9.5846,4.0403 6.9984,5.9194 7.9863,8.9597 5.4,7.0807 2.8137,8.9597 3.8016,5.9194 1.2154,4.0403 4.4121,4.0403 " style="fill: #9e9ac8; stroke: #000000; stroke-width: 1" />
		</symbol>
		<symbol class="symbol" id="symbol8" viewBox="0 0 10.8 10.8">
			<circle cx="5.4" cy="5.4" r="4.4" style="fill: none; stroke: #000000; stroke-width: 1" />
			<line style="stroke: #000000; stroke-width: 1" x1="1" x2="9.8" y1="1" y2="9.8" />
			<line style="stroke: #000000; stroke-width: 1" x1="1" x2="9.8" y1="9.8" y2="1" />
		</symbol>
		<symbol class="symbol" id="symbol9" viewBox="0 0 10.8 10.8">
			<line style="stroke: #000000; stroke-width: 1" x1="5.4" x2="5.4" y1="1" y2="9.8" />
			<line style="stroke: #000000; stroke-width: 1" x1="1" x2="9.8" y1="1" y2="1" />
			<line style="stroke: #000000; stroke-width: 1" x1="1" x2="9.8" y1="9.8" y2="9.8" />
		</symbol>
		<symbol class="symbol" id="symbol10" viewBox="0 0 10.8 10.8">
			<path d="M5.4 1 L9.8 5.4 L5.4 9.8 L1 5.4 Z" style="fill: #fff450; stroke: #000000; stroke-width: 1" />
		</symbol>
		<symbol class="symbol" id="symbol11" viewBox="0 0 10.8 10.8">
			<path d="M5.4 1 L1.5895 7.6 L9.2105 7.6 Z" style="fill: #fb6a4a; stroke: #000000; stroke-width: 1" />
		</symbol>
		<linearGradient id="color14" x1="0" x2="1" y1="1" y2="1">
			<stop offset="0" stop-color="#00ff00" />
			<stop offset="0.5" stop-color="#000000" />
			<stop offset="1" stop-color="#ff0000" />
		</linearGradient>
		<style type="text/css"><![CDATA[marker.arrow {
fill: #000000;
stroke-width: 0;
stroke: #000000;
}

path.selectot {
stroke-width: 1;
stroke: #000000;
}

path.pie {
fill-opacity: 0.7;
stroke-width: 0;
}

path.marker {
stroke-width: 0;
stroke: #000000;
}

path.clade {
stroke: #000000;
stroke-width: 1;
fill-opacity: 1;
fill: none;
}

path.heatmap {
stroke: #000000;
stroke-width: 0;
}

path.range {
fill-opacity: 1;
fill: none;
stroke-width: 0;
stroke: #000000;
}

svg {
fill-opacity: 1;
fill: none;
stroke-width: 1;
stroke: #000000;
}

line.hgt {
stroke-width: 1;
}

line.split {
stroke-dasharray: 3 6 6 6;
stroke-width: 1;
stroke: #444444;
}

line.linkage {
stroke-dasharray: 4 4;
stroke: #333333;
stroke-width: 1;
}

line.scale {
stroke-width: 2;
}

line.tail {
stroke-width: 1;
}

line {
stroke: #000000;
stroke-width: 1;
}

circle.marker {
fill-opacity: 0.7;
stroke-width: 0;
}

text.leaf {
font-style: italic;
font-size: 41px;
font-weight: bold;
}

text {
font-style: normal;
stroke-width: 0;
font-size: 12px;
font-weight: normal;
font-family: Arial;
fill: #000000;
fill-opacity: 1;
}

text.scale {
font-weight: bold;
}

rect.heatmap {
stroke: #000000;
stroke-width: 0;
}

rect.range {
fill-opacity: 1;
fill: none;
stroke: #000000;
stroke-width: 0;
}

rect.selectot {
stroke-width: 1;
stroke: #000000;
}

rect {
fill: none;
stroke-width: 1;
stroke: #000000;
}

rect.marker {
stroke: #000000;
stroke-width: 0;
}

]]></style>
	</defs>
	<g id="heatmap3">
		<g id="tree4" />
		<g id="tree5">
			<rect class="range" height="27" style="fill:#ff9900;stroke:#ff9900" width="394" x="30" y="297" />
			<line class="leaf" id="node_8" x1="30" x2="63.33" y1="310.5" y2="310.5" />
			<line class="linkage" x1="63.33" x2="130" y1="310.5" y2="310.5" />
			<text class="leaf" x="134" y="325.465">BtMC28000001</text>
			<rect class="range" height="27" width="10" x="96.68" y="324" />
			<line class="leaf" id="node_9" x1="96.68" x2="130.01" y1="337.5" y2="337.5" />
			<text class="leaf" style="fill:#ff0000;font-weight:bold;font-style:italic;font-size:41px;" x="134" y="352.465">BtMC28000009</text>
			<rect class="range" height="27" width="10" x="96.68" y="351" />
			<line class="leaf" id="node_10" x1="96.68" x2="130.01" y1="364.5" y2="364.5" />
			<text class="leaf" style="font-style:italic;font-size:41px;font-weight:bold;fill:#4400ff;" x="134" y="379.465">BtMC28000008</text>
			<rect class="range" height="54" width="10" x="96.68" y="324" />
			<line class="clade" x1="96.68" x2="96.68" y1="337.5" y2="364.5" />
			<line class="clade" id="node_11" x1="80.01" x2="96.68" y1="351" y2="351" />
			<rect class="range" height="27" width="10" x="96.68" y="378" />
			<line class="leaf" id="node_12" x1="96.68" x2="130.01" y1="391.5" y2="391.5" />
			<text class="leaf" style="font-weight:bold;fill:#4400ff;font-size:41px;font-style:italic;" x="134" y="406.465">BtMC28000006</text>
			<rect class="range" height="27" style="fill:#00ff99;stroke:#00ff99" width="327.32" x="96.68" y="405" />
			<line class="leaf" id="node_13" x1="96.68" x2="130.01" y1="418.5" y2="418.5" />
			<text class="leaf" x="134" y="433.465">BtMC28000005</text>
			<rect class="range" height="54" width="10" x="96.68" y="378" />
			<line class="clade" x1="96.68" x2="96.68" y1="391.5" y2="418.5" />
			<line class="clade" id="node_14" x1="80.01" x2="96.68" y1="405" y2="405" />
			<rect class="range" height="81" width="10" x="80.01" y="337.5" />
			<line class="clade" x1="80.01" x2="80.01" y1="351" y2="405" />
			<line class="clade" id="node_15" x1="63.34" x2="80.01" y1="378" y2="378" />
			<rect class="range" height="27" width="10" x="80.01" y="432" />
			<line class="leaf" id="node_16" x1="80.01" x2="113.34" y1="445.5" y2="445.5" />
			<line class="linkage" x1="113.34" x2="130" y1="445.5" y2="445.5" />
			<text class="leaf" style="font-weight:bold;fill:#4400ff;font-style:italic;font-size:41px;" x="134" y="460.465">BtMC28000007</text>
			<rect class="range" height="27" style="fill:#00ff99;stroke:#00ff99" width="343.99" x="80.01" y="459" />
			<line class="leaf" id="node_17" x1="80.01" x2="113.34" y1="472.5" y2="472.5" />
			<line class="linkage" x1="113.34" x2="130" y1="472.5" y2="472.5" />
			<text class="leaf" x="134" y="487.465">BtMC28000003</text>
			<rect class="range" height="54" width="10" x="80.01" y="432" />
			<line class="clade" x1="80.01" x2="80.01" y1="445.5" y2="472.5" />
			<line class="clade" id="node_18" x1="63.34" x2="80.01" y1="459" y2="459" />
			<rect class="range" height="108" width="10" x="63.34" y="364.5" />
			<line class="clade" x1="63.34" x2="63.34" y1="378" y2="459" />
			<line class="clade" id="node_19" x1="46.67" x2="63.34" y1="418.5" y2="418.5" />
			<rect class="range" height="27" style="fill:#00ff99;stroke:#00ff99" width="360.66" x="63.34" y="486" />
			<line class="leaf" id="node_20" x1="63.34" x2="96.67" y1="499.5" y2="499.5" />
			<line class="linkage" x1="96.67" x2="130" y1="499.5" y2="499.5" />
			<text class="leaf" x="134" y="514.465">BtMC28000004</text>
			<rect class="range" height="27" style="fill:#ff9900;stroke:#ff9900" width="360.66" x="63.34" y="513" />
			<line class="leaf" id="node_21" x1="63.34" x2="96.67" y1="526.5" y2="526.5" />
			<line class="linkage" x1="96.67" x2="130" y1="526.5" y2="526.5" />
			<text class="leaf" x="134" y="541.465">BtMC28000002</text>
			<rect class="range" height="54" width="10" x="63.34" y="486" />
			<line class="clade" x1="63.34" x2="63.34" y1="499.5" y2="526.5" />
			<line class="clade" id="node_22" x1="46.67" x2="63.34" y1="513" y2="513" />
			<rect class="range" height="121.5" width="10" x="46.67" y="405" />
			<line class="clade" x1="46.67" x2="46.67" y1="418.5" y2="513" />
			<line class="clade" id="node_23" x1="30" x2="46.67" y1="465.75" y2="465.75" />
			<rect class="range" height="182.25" width="10" x="30" y="297" />
			<line class="clade" x1="30" x2="30" y1="310.5" y2="465.75" />
			<line class="tail" id="node_24" x1="20" x2="30" y1="388.125" y2="388.125" />
			<rect class="heatmap" height="27" style="fill:#810000" width="50" x="432" y="405" />
			<rect class="heatmap" height="27" style="fill:#ff0000" width="50" x="482" y="405" />
			<rect class="heatmap" height="27" style="fill:#00f600" width="50" x="532" y="405" />
			<rect class="heatmap" height="27" style="fill:#00ff00" width="50" x="582" y="405" />
			<rect class="heatmap" height="27" style="fill:#ff0000" width="50" x="432" y="432" />
			<rect class="heatmap" height="27" style="fill:#6e0000" width="50" x="482" y="432" />
			<rect class="heatmap" height="27" style="fill:#3c0000" width="50" x="532" y="432" />
			<rect class="heatmap" height="27" style="fill:#00ff00" width="50" x="582" y="432" />
			<rect class="heatmap" height="27" style="fill:#00e000" width="50" x="432" y="513" />
			<rect class="heatmap" height="27" style="fill:#00ff00" width="50" x="482" y="513" />
			<rect class="heatmap" height="27" style="fill:#b70000" width="50" x="532" y="513" />
			<rect class="heatmap" height="27" style="fill:#ff0000" width="50" x="582" y="513" />
			<rect class="heatmap" height="27" style="fill:#003f00" width="50" x="432" y="378" />
			<rect class="heatmap" height="27" style="fill:#ff0000" width="50" x="482" y="378" />
			<rect class="heatmap" height="27" style="fill:#00ff00" width="50" x="532" y="378" />
			<rect class="heatmap" height="27" style="fill:#380000" width="50" x="582" y="378" />
			<rect class="heatmap" height="27" style="fill:#ff0000" width="50" x="432" y="324" />
			<rect class="heatmap" height="27" style="fill:#000200" width="50" x="482" y="324" />
			<rect class="heatmap" height="27" style="fill:#00ff00" width="50" x="532" y="324" />
			<rect class="heatmap" height="27" style="fill:#270000" width="50" x="582" y="324" />
			<rect class="heatmap" height="27" style="fill:#ff0000" width="50" x="432" y="297" />
			<rect class="heatmap" height="27" style="fill:#008e00" width="50" x="482" y="297" />
			<rect class="heatmap" height="27" style="fill:#00ff00" width="50" x="532" y="297" />
			<rect class="heatmap" height="27" style="fill:#00e100" width="50" x="582" y="297" />
			<rect class="heatmap" height="27" style="fill:#ff0000" width="50" x="432" y="351" />
			<rect class="heatmap" height="27" style="fill:#00d300" width="50" x="482" y="351" />
			<rect class="heatmap" height="27" style="fill:#00ff00" width="50" x="532" y="351" />
			<rect class="heatmap" height="27" style="fill:#00dc00" width="50" x="582" y="351" />
			<rect class="heatmap" height="27" style="fill:#00ff00" width="50" x="432" y="486" />
			<rect class="heatmap" height="27" style="fill:#007500" width="50" x="482" y="486" />
			<rect class="heatmap" height="27" style="fill:#980000" width="50" x="532" y="486" />
			<rect class="heatmap" height="27" style="fill:#ff0000" width="50" x="582" y="486" />
			<rect class="heatmap" height="27" style="fill:#00ff00" width="50" x="432" y="459" />
			<rect class="heatmap" height="27" style="fill:#00ff00" width="50" x="482" y="459" />
			<rect class="heatmap" height="27" style="fill:#00ff00" width="50" x="532" y="459" />
			<rect class="heatmap" height="27" style="fill:#ff0000" width="50" x="582" y="459" />
			<rect class="marker" height="16.2" style="fill:#99cc00;" width="16" x="640" y="383.4" />
			<rect class="marker" height="16.2" style="fill:#0000ff;" width="16" x="640" y="329.4" />
			<rect class="marker" height="16.2" style="fill:#ff0000;" width="16" x="640" y="302.4" />
			<rect class="marker" height="16.2" style="fill:#009900;" width="16" x="640" y="410.4" />
			<rect class="marker" height="16.2" style="fill:#009999;" width="16" x="640" y="437.4" />
			<rect class="marker" height="16.2" style="fill:#00ffff;" width="16" x="640" y="518.4" />
			<rect class="marker" height="16.2" style="fill:#00ff00;" width="16" x="640" y="464.4" />
			<rect class="marker" height="16.2" style="fill:#cc0099;" width="16" x="640" y="356.4" />
			<rect class="marker" height="16.2" style="fill:#990000;" width="16" x="640" y="491.4" />
			<rect class="marker" height="18.9" style="fill:#fb7c60;" width="16" x="664" y="355.05" />
			<rect class="marker" height="18.9" style="fill:#fdc7bb;" width="16" x="664" y="490.05" />
			<rect class="marker" height="18.9" style="fill:#fed9d1;" width="16" x="664" y="463.05" />
			<rect class="marker" height="18.9" style="fill:#fdb4a4;" width="16" x="664" y="409.05" />
			<rect class="marker" height="18.9" style="fill:#fc8f77;" width="16" x="664" y="436.05" />
			<rect class="marker" height="18.9" style="fill:#feece8;" width="16" x="664" y="517.05" />
			<rect class="marker" height="18.9" style="fill:#fca18d;" width="16" x="664" y="382.05" />
			<rect class="marker" height="18.9" style="fill:#fb6a4a;" width="16" x="664" y="328.05" />
			<rect class="marker" height="18.9" style="fill:#ffffff;" width="16" x="664" y="301.05" />
			<rect class="marker" height="16.2" style="fill:#6baed6" width="56.25" x="688" y="383.4" />
			<rect class="marker" height="16.2" style="fill:#9e9ac8" width="30" x="744.25" y="383.4" />
			<rect class="marker" height="16.2" style="fill:#6baed6" width="7.5" x="688" y="302.4" />
			<rect class="marker" height="16.2" style="fill:#9e9ac8" width="15" x="695.5" y="302.4" />
			<rect class="marker" height="16.2" style="fill:#6baed6" width="66.75" x="688" y="329.4" />
			<rect class="marker" height="16.2" style="fill:#9e9ac8" width="45" x="754.75" y="329.4" />
			<rect class="marker" height="16.2" style="fill:#6baed6" width="30" x="688" y="410.4" />
			<rect class="marker" height="16.2" style="fill:#9e9ac8" width="52.5" x="718" y="410.4" />
			<rect class="marker" height="16.2" style="fill:#6baed6" width="15" x="688" y="437.4" />
			<rect class="marker" height="16.2" style="fill:#9e9ac8" width="22.5" x="703" y="437.4" />
			<rect class="marker" height="16.2" style="fill:#6baed6" width="75" x="688" y="518.4" />
			<rect class="marker" height="16.2" style="fill:#9e9ac8" width="22.5" x="763" y="518.4" />
			<rect class="marker" height="16.2" style="fill:#6baed6" width="67.5" x="688" y="464.4" />
			<rect class="marker" height="16.2" style="fill:#9e9ac8" width="7.5" x="755.5" y="464.4" />
			<rect class="marker" height="16.2" style="fill:#6baed6" width="52.5" x="688" y="356.4" />
			<rect class="marker" height="16.2" style="fill:#9e9ac8" width="67.5" x="740.5" y="356.4" />
			<rect class="marker" height="16.2" style="fill:#6baed6" width="60" x="688" y="491.4" />
			<rect class="marker" height="16.2" style="fill:#9e9ac8" width="60" x="748" y="491.4" />
			<g >
				<use height="10.8" width="10.8" x="846" xlink:href="#symbol6" y="305.1" />
			</g>
			<g >
				<use height="10.8" width="10.8" x="860.8" xlink:href="#symbol7" y="305.1" />
			</g>
			<g >
				<use height="10.8" width="10.8" x="875.6" xlink:href="#symbol8" y="305.1" />
			</g>
			<g >
				<use height="10.8" width="10.8" x="846" xlink:href="#symbol9" y="521.1" />
			</g>
			<g >
				<use height="10.8" width="10.8" x="860.8" xlink:href="#symbol10" y="521.1" />
			</g>
			<g >
				<use height="10.8" width="10.8" x="875.6" xlink:href="#symbol11" y="521.1" />
			</g>
			<circle class="marker" cx="914.8" cy="391.5" r="8.1" style="fill:#fb6a4a" />
			<circle class="marker" cx="914.8" cy="310.5" r="1.08" style="fill:#fb6a4a" />
			<circle class="marker" cx="914.8" cy="337.5" r="9.61" style="fill:#fb6a4a" />
			<circle class="marker" cx="914.8" cy="418.5" r="4.32" style="fill:#fb6a4a" />
			<circle class="marker" cx="914.8" cy="526.5" r="10.8" style="fill:#fb6a4a" />
			<circle class="marker" cx="914.8" cy="445.5" r="2.16" style="fill:#fb6a4a" />
			<circle class="marker" cx="914.8" cy="472.5" r="9.72" style="fill:#fb6a4a" />
			<circle class="marker" cx="914.8" cy="364.5" r="7.56" style="fill:#fb6a4a" />
			<circle class="marker" cx="914.8" cy="499.5" r="8.64" style="fill:#fb6a4a" />
			<circle class="marker" cx="953.2" cy="391.5" r="4.32" style="fill:#74c476" />
			<circle class="marker" cx="953.2" cy="310.5" r="2.16" style="fill:#74c476" />
			<circle class="marker" cx="953.2" cy="337.5" r="6.48" style="fill:#74c476" />
			<circle class="marker" cx="953.2" cy="418.5" r="7.56" style="fill:#74c476" />
			<circle class="marker" cx="953.2" cy="526.5" r="3.24" style="fill:#74c476" />
			<circle class="marker" cx="953.2" cy="445.5" r="3.24" style="fill:#74c476" />
			<circle class="marker" cx="953.2" cy="472.5" r="1.08" style="fill:#74c476" />
			<circle class="marker" cx="953.2" cy="364.5" r="9.72" style="fill:#74c476" />
			<circle class="marker" cx="953.2" cy="499.5" r="8.64" style="fill:#74c476" />
		</g>
		<g id="tree12" />
		<g id="tree13" transform="rotate(-90,532,430)">
			<rect class="range" height="50" width="10" x="192" y="330" />
			<line class="leaf" id="node_25" x1="192" x2="246.9" y1="355" y2="355" />
			<line class="linkage" x1="246.9" x2="301.8" y1="355" y2="355" />
			<text class="leaf" style="fill:#33ff99;font-weight:bold;font-size:41px;font-style:italic;" x="305.8" y="369.965">BT12</text>
			<rect class="range" height="50" width="10" x="219.45" y="380" />
			<line class="leaf" id="node_26" x1="219.45" x2="274.35" y1="405" y2="405" />
			<line class="linkage" x1="274.35" x2="301.8" y1="405" y2="405" />
			<text class="leaf" style="font-style:italic;font-size:41px;fill:#33ff99;font-weight:bold;" x="305.8" y="419.965">BT8</text>
			<rect class="range" height="50" style="fill:#00ffcc;stroke:#00ffcc" width="159.1" x="246.9" y="430" />
			<line class="leaf" id="node_27" x1="246.9" x2="301.8" y1="455" y2="455" />
			<text class="leaf" x="305.8" y="469.965">BT6</text>
			<rect class="range" height="50" style="fill:#88ffcc;stroke:#88ffcc" width="159.1" x="246.9" y="480" />
			<line class="leaf" id="node_28" x1="246.9" x2="301.8" y1="505" y2="505" />
			<text class="leaf" x="305.8" y="519.965">BT4</text>
			<rect class="range" height="100" width="10" x="246.9" y="430" />
			<line class="clade" x1="246.9" x2="246.9" y1="455" y2="505" />
			<line class="clade" id="node_29" x1="219.45" x2="246.9" y1="480" y2="480" />
			<rect class="range" height="125" width="10" x="219.45" y="380" />
			<line class="clade" x1="219.45" x2="219.45" y1="405" y2="480" />
			<line class="clade" id="node_30" x1="192" x2="219.45" y1="442.5" y2="442.5" />
			<rect class="range" height="137.5" width="10" x="192" y="330" />
			<line class="clade" x1="192" x2="192" y1="355" y2="442.5" />
			<line class="tail" id="node_31" x1="182" x2="192" y1="398.75" y2="398.75" />
			<rect class="marker" height="50" style="fill:#99cc00;" width="16" x="700" y="330" />
			<rect class="marker" height="50" style="fill:#00ff99;" width="16" x="700" y="380" />
			<rect class="marker" height="50" style="fill:#ff0000;" width="16" x="700" y="480" />
			<rect class="marker" height="50" style="fill:#00ff00;" width="16" x="700" y="430" />
			<rect class="marker" height="30" style="fill:#fb6a4a" width="150" x="724" y="340" />
			<rect class="marker" height="30" style="fill:#74c476" width="0" x="724" y="390" />
			<rect class="marker" height="30" style="fill:#6baed6" width="54.55" x="724" y="440" />
			<rect class="marker" height="30" style="fill:#fff450" width="81.82" x="724" y="490" />
		</g>
		<rect height="23.24" style="fill:url(#color14);stroke-width:0" width="200" x="432" y="28" />
		<g class="axis" transform="translate(432,51.24)">
			<line class="tick" x1="0" x2="0" y1="0" y2="8" />
			<text style="font-size:12px;font-style:normal;fill:#000000;font-weight:normal;" x="-5.335" y="20.76">-1</text>
			<line class="tick" x1="100" x2="100" y1="0" y2="8" />
			<text style="font-size:12px;font-style:normal;fill:#000000;font-weight:normal;" x="96.665" y="20.76">0</text>
			<line class="tick" x1="200" x2="200" y1="0" y2="8" />
			<text style="font-weight:normal;fill:#000000;font-size:12px;font-style:normal;" x="196.665" y="20.76">1</text>
		</g>
	</g>
	<g >
		<line class="split" x1="20" x2="980" y1="80" y2="80" />
		<line class="split" x1="20" x2="980" y1="270" y2="270" />
		<line class="split" x1="20" x2="980" y1="540" y2="540" />
		<line class="split" x1="432" x2="432" y1="80" y2="780" />
		<line class="split" x1="632" x2="632" y1="80" y2="780" />
	</g>
</svg>