<svg height="600" id="sbv1" viewBox="100 80 660 500" width="600" xmlns="http://www.w3.org/2000/svg" xmlns:svg="http://www.w3.org/2000/svg" xmlns:xlink="http://www.w3.org/1999/xlink">
	<title id="sbv-title">The graph of SBV venn</title>
	<desc id="sbv-desc">This graph was generated by SBV which was written by Peng. E-mail is aipeng0520@163.com</desc>
	<defs id="defs2">
		<style type="text/css"><![CDATA[circle {
fill-opacity: 0.3;
stroke: #000000;
stroke-width: 2;
}

text {
font-weight: normal;
font-size: 16px;
stroke-width: 0;
fill: #000000;
font-family: Arial;
font-style: normal;
}

text.label {
font-family: Arial;
fill: #000000;
font-style: normal;
font-weight: bold;
font-size: 18px;
}

text.title {
font-weight: bold;
font-size: 16px;
font-family: Arial;
fill: #000000;
font-style: normal;
}

svg {
stroke-width: 1;
fill-opacity: 1;
stroke: #000000;
fill: none;
}

ellipse {
stroke: #000000;
fill-opacity: 0.3;
stroke-width: 2;
}

rect.text {
fill: #77cc66;
stroke: #ffffff;
stroke-width: 1;
}

path {
stroke-width: 2;
fill-opacity: 0.3;
stroke: #000000;
}

]]></style>
	</defs>
	<rect class="background" height="560" style="fill: #eeeeee; stroke-width: 0" width="560" x="20" y="20" />
	<g id="venn3">
		<path d="M240 350 A110 75 0 0 1 343.463319293926 275.319936777872 L430 260 A160 140 0 1 1 430 440 L343.463319293926 424.680063222128 A110 75 0 0 1 240 350" id="set2" style="fill:#ff0000;stroke-width:0;" />
		<path d="M240 350 A110 75 0 0 1 343.463319293926 275.319936777872 L430 260 A160 140 0 1 1 430 440 L343.463319293926 424.680063222128 A110 75 0 0 1 240 350" id="set3" style="fill:#fff400;stroke-width:0;" transform="rotate(72,420,320)" />
		<path d="M240 350 A110 75 0 0 1 343.463319293926 275.319936777872 L430 260 A160 140 0 1 1 430 440 L343.463319293926 424.680063222128 A110 75 0 0 1 240 350" id="set4" style="fill:#14ff00;stroke-width:0;" transform="rotate(144,420,320)" />
		<path d="M240 350 A110 75 0 0 1 343.463319293926 275.319936777872 L430 260 A160 140 0 1 1 430 440 L343.463319293926 424.680063222128 A110 75 0 0 1 240 350" id="set5" style="fill:#00ffe0;stroke-width:0;" transform="rotate(216,420,320)" />
		<path d="M240 350 A110 75 0 0 1 343.463319293926 275.319936777872 L430 260 A160 140 0 1 1 430 440 L343.463319293926 424.680063222128 A110 75 0 0 1 240 350" id="set1" style="fill:#0028ff;stroke-width:0;" transform="rotate(288,420,320)" />
		<path d="M240 350 A110 75 0 0 1 343.463319293926 275.319936777872 L430 260 A160 140 0 1 1 430 440 L343.463319293926 424.680063222128 A110 75 0 0 1 240 350" style="fill:none;stroke=>#000;" />
		<path d="M240 350 A110 75 0 0 1 343.463319293926 275.319936777872 L430 260 A160 140 0 1 1 430 440 L343.463319293926 424.680063222128 A110 75 0 0 1 240 350" style="fill:none;stroke=>#000;" transform="rotate(72,420,320)" />
		<path d="M240 350 A110 75 0 0 1 343.463319293926 275.319936777872 L430 260 A160 140 0 1 1 430 440 L343.463319293926 424.680063222128 A110 75 0 0 1 240 350" style="fill:none;stroke=>#000;" transform="rotate(144,420,320)" />
		<path d="M240 350 A110 75 0 0 1 343.463319293926 275.319936777872 L430 260 A160 140 0 1 1 430 440 L343.463319293926 424.680063222128 A110 75 0 0 1 240 350" style="fill:none;stroke=>#000;" transform="rotate(216,420,320)" />
		<path d="M240 350 A110 75 0 0 1 343.463319293926 275.319936777872 L430 260 A160 140 0 1 1 430 440 L343.463319293926 424.680063222128 A110 75 0 0 1 240 350" style="fill:none;stroke=>#000;" transform="rotate(288,420,320)" />
		<text class="label" id="label1" x="440.035" y="40">LR4-AF-vs-BF</text>
		<text class="label" id="label2" transform="rotate(-45,680,460)" x="620.035" y="460">LR5-AF-vs-BF</text>
		<text class="label" id="label3" x="380.035" y="630">LR6-AF-vs-BF</text>
		<text class="label" id="label4" x="180.07" y="540">LR7-AF-vs-BF</text>
		<text class="label" id="label5" x="240.035" y="65">LR9-AF-vs-BF</text>
		<text id="text10000" x="506.655" y="105.84">315</text>
		<text id="text01000" x="622.21" y="355.84">1345</text>
		<text id="text00100" x="432.21" y="545.84">1253</text>
		<text id="text00010" x="206.655" y="415.84">408</text>
		<text id="text00001" x="246.655" y="175.84">310</text>
		<text id="text11111" x="416.105" y="325.84">44</text>
		<text id="text11011" x="484.105" y="275.84">17</text>
		<text id="text11101" x="476.105" y="378.84">26</text>
		<text id="text11110" x="386.105" y="403.84">27</text>
		<text id="text01111" x="316.655" y="320.84">150</text>
		<text id="text10111" x="384.105" y="232.84">36</text>
		<text id="text10010" x="504.105" y="198.84">35</text>
		<text id="text11000" x="559.655" y="255.84">142</text>
		<text id="text01001" x="560.105" y="365.84">89</text>
		<text id="text01100" x="519.655" y="458.84">273</text>
		<text id="text10100" x="424.105" y="475.84">78</text>
		<text id="text00110" x="311.655" y="465.84">268</text>
		<text id="text01010" x="263.655" y="378.84">362</text>
		<text id="text00011" x="241.655" y="273.84">204</text>
		<text id="text00101" x="311.655" y="200.84">245</text>
		<text id="text10001" x="396.105" y="150.84">29</text>
		<text id="text11010" x="522.105" y="240.84">78</text>
		<text id="text11001" x="529.105" y="313.84">13</text>
		<text id="text01101" x="521.84" y="398.84">111</text>
		<text id="text11100" x="453.105" y="433.84">32</text>
		<text id="text10110" x="373.105" y="455.84">20</text>
		<text id="text01110" x="314.655" y="398.84">172</text>
		<text id="text01011" x="273.105" y="322.84">67</text>
		<text id="text00111" x="306.655" y="257.84">253</text>
		<text id="text10101" x="366.105" y="192.84">36</text>
		<text id="text10011" x="446.105" y="205.84">26</text>
	</g>
</svg>