<svg height="1600" id="sbv1" width="1600" xmlns="http://www.w3.org/2000/svg" xmlns:svg="http://www.w3.org/2000/svg" xmlns:xlink="http://www.w3.org/1999/xlink">
	<title id="sbv-title">The graph of SBV tree</title>
	<desc id="sbv-desc">This graph was generated by SBV which was written by Peng. E-mail is aipeng0520@163.com</desc>
	<defs id="defs2">
		<style type="text/css"><![CDATA[marker.arrow {
fill: #000000;
stroke: #000000;
stroke-width: 0;
}

line.tail {
stroke: #000000;
stroke-width: 1;
}

line {
stroke-width: 1;
stroke: #000000;
}

line.hgt {
stroke-width: 1;
}

line.scale {
stroke: #000000;
stroke-width: 2;
}

line.linkage {
stroke-width: 1;
stroke: #444444;
}

line.clade {
stroke: #000000;
}

rect.selectot {
stroke: #000000;
stroke-width: 1;
}

rect.heatmap {
stroke: #000000;
stroke-width: 0;
}

rect.marker {
stroke-width: 0;
stroke: #000000;
}

rect.range {
stroke: #000000;
fill-opacity: 1;
fill: none;
stroke-width: 0;
}

rect {
stroke-width: 1;
stroke: #000000;
fill: none;
}

path.selectot {
stroke: #000000;
stroke-width: 1;
}

path.pie {
fill-opacity: 0.7;
stroke-width: 0;
}

path.clade {
stroke-width: 1;
fill-opacity: 1;
stroke: #000000;
fill: none;
}

path.heatmap {
stroke: #000000;
stroke-width: 0;
}

path.marker {
stroke-width: 0;
stroke: #000000;
}

path.range {
stroke-width: 0;
stroke: #000000;
fill-opacity: 1;
fill: none;
}

circle.marker {
stroke-width: 0;
fill-opacity: 0.7;
}

text.leaf {
font-weight: bold;
font-style: normal;
font-size: 10px;
}

text.clade_id {
font-style: normal;
font-size: 14px;
dominant-baseline: middle;
font-weight: bold;
}

text {
font-weight: normal;
fill: #000000;
fill-opacity: 1;
font-style: normal;
font-size: 18px;
stroke-width: 0;
font-family: Arial;
}

text.scale {
font-weight: bold;
}

svg {
stroke-width: 1;
stroke: #000000;
fill-opacity: 1;
fill: none;
}

]]></style>
	</defs>
	<g class="border" id="g3" />
	<rect class="background" height="1200" style="fill: #ffffff; stroke-width: 0" width="1200" x="200" y="200" />
	<g id="tree4" />
	<g id="tree5">
		<rect class="range" height="26.087" width="10" x="210" y="200" />
		<line class="leaf" id="node_27" x1="210" x2="387.47" y1="213.0435" y2="213.0435" />
		<line class="linkage" x1="387.47" x2="1363.57" y1="213.0435" y2="213.0435" />
		<text class="leaf" style="font-style:normal;font-size:10px;font-weight:bold;fill:#ff0000;font-family:Arial;" x="1367.57" y="216.6935">LOC</text>
		<rect class="range" height="26.087" width="10" x="742.44" y="226.087" />
		<line class="leaf" id="node_2" x1="742.44" x2="919.91" y1="239.1305" y2="239.1305" />
		<line class="linkage" x1="919.91" x2="1363.57" y1="239.1305" y2="239.1305" />
		<text class="leaf" style="font-family:Arial;font-weight:bold;fill:#ff0000;font-style:normal;font-size:10px;" x="1367.57" y="242.7805">CCA</text>
		<rect class="range" height="26.087" width="10" x="919.92" y="252.174" />
		<line class="leaf" id="node_3" x1="919.92" x2="1097.39" y1="265.2175" y2="265.2175" />
		<line class="linkage" x1="1097.39" x2="1363.57" y1="265.2175" y2="265.2175" />
		<text class="leaf" style="font-family:Arial;font-weight:bold;fill:#ff0000;font-style:normal;font-size:10px;" x="1367.57" y="268.8675">SAN</text>
		<rect class="range" height="26.087" width="10" x="919.92" y="278.261" />
		<line class="leaf" id="node_4" x1="919.92" x2="1097.39" y1="291.3045" y2="291.3045" />
		<line class="linkage" x1="1097.39" x2="1363.57" y1="291.3045" y2="291.3045" />
		<text class="leaf" style="font-size:10px;font-style:normal;fill:#ff0000;font-weight:bold;font-family:Arial;" x="1367.57" y="294.9545">SGR</text>
		<rect class="range" height="52.174" width="10" x="919.92" y="252.174" />
		<line class="clade" x1="919.92" x2="919.92" y1="265.2175" y2="291.3045" />
		<line class="clade" id="node_5" x1="831.18" x2="919.92" y1="278.261" y2="278.261" />
		<text class="bootstrap" x="895.9" y="295.401">62</text>
		<rect class="range" height="26.087" width="10" x="831.18" y="304.348" />
		<line class="leaf" id="node_6" x1="831.18" x2="1008.65" y1="317.3915" y2="317.3915" />
		<line class="linkage" x1="1008.65" x2="1363.57" y1="317.3915" y2="317.3915" />
		<text class="leaf" style="font-family:Arial;font-size:10px;font-style:normal;fill:#ff0000;font-weight:bold;" x="1367.57" y="321.0415">SRH</text>
		<rect class="range" height="65.2175" width="10" x="831.18" y="265.2175" />
		<line class="clade" x1="831.18" x2="831.18" y1="278.261" y2="317.3915" />
		<line class="clade" id="node_7" x1="742.44" x2="831.18" y1="297.82625" y2="297.82625" />
		<text class="bootstrap" x="807.16" y="314.96625">92</text>
		<rect class="range" height="84.78275" width="10" x="742.44" y="226.087" />
		<line class="clade" x1="742.44" x2="742.44" y1="239.1305" y2="297.82625" />
		<line class="clade" id="node_8" x1="653.7" x2="742.44" y1="268.478375" y2="268.478375" />
		<rect class="range" height="26.087" width="10" x="653.7" y="330.435" />
		<line class="leaf" id="node_9" x1="653.7" x2="831.17" y1="343.4785" y2="343.4785" />
		<line class="linkage" x1="831.17" x2="1363.57" y1="343.4785" y2="343.4785" />
		<text class="leaf" style="font-family:Arial;font-size:10px;font-style:normal;fill:#ff0000;font-weight:bold;" x="1367.57" y="347.1285">CAU</text>
		<rect class="range" height="101.087125" width="10" x="653.7" y="255.434875" />
		<line class="clade" x1="653.7" x2="653.7" y1="268.478375" y2="343.4785" />
		<line class="clade" id="node_10" x1="564.96" x2="653.7" y1="305.9784375" y2="305.9784375" />
		<text class="bootstrap" x="629.68" y="323.1184375">95</text>
		<rect class="range" height="26.087" width="10" x="653.7" y="356.522" />
		<line class="leaf" id="node_11" x1="653.7" x2="831.17" y1="369.5655" y2="369.5655" />
		<line class="linkage" x1="831.17" x2="1363.57" y1="369.5655" y2="369.5655" />
		<text class="leaf" x="1367.57" y="373.2155">CID</text>
		<rect class="range" height="26.087" width="10" x="653.7" y="382.609" />
		<line class="leaf" id="node_12" x1="653.7" x2="831.17" y1="395.6525" y2="395.6525" />
		<line class="linkage" x1="831.17" x2="1363.57" y1="395.6525" y2="395.6525" />
		<text class="leaf" style="font-family:Arial;fill:#ff0000;font-weight:bold;font-size:10px;font-style:normal;" x="1367.57" y="399.3025">MAM</text>
		<rect class="range" height="52.174" width="10" x="653.7" y="356.522" />
		<line class="clade" x1="653.7" x2="653.7" y1="369.5655" y2="395.6525" />
		<line class="clade" id="node_13" x1="564.96" x2="653.7" y1="382.609" y2="382.609" />
		<text class="bootstrap" x="619.68" y="399.749">100</text>
		<rect class="range" height="102.7175625" width="10" x="564.96" y="292.9349375" />
		<line class="clade" x1="564.96" x2="564.96" y1="305.9784375" y2="382.609" />
		<line class="clade" id="node_14" x1="476.22" x2="564.96" y1="344.29371875" y2="344.29371875" />
		<text class="bootstrap" x="540.94" y="361.43371875">88</text>
		<rect class="range" height="26.087" width="10" x="476.22" y="408.696" />
		<line class="leaf" id="node_15" x1="476.22" x2="653.69" y1="421.7395" y2="421.7395" />
		<line class="linkage" x1="653.69" x2="1363.57" y1="421.7395" y2="421.7395" />
		<text class="leaf" x="1367.57" y="425.3895">DRE</text>
		<rect class="range" height="103.53278125" width="10" x="476.22" y="331.25021875" />
		<line class="clade" x1="476.22" x2="476.22" y1="344.29371875" y2="421.7395" />
		<line class="clade" id="node_16" x1="387.48" x2="476.22" y1="383.016609375" y2="383.016609375" />
		<text class="bootstrap" x="442.2" y="400.156609375">100</text>
		<rect class="range" height="26.087" width="10" x="564.96" y="434.783" />
		<line class="leaf" id="node_17" x1="564.96" x2="742.43" y1="447.8265" y2="447.8265" />
		<line class="linkage" x1="742.43" x2="1363.57" y1="447.8265" y2="447.8265" />
		<text class="leaf" style="font-weight:bold;fill:#ff0000;font-style:normal;font-size:10px;font-family:Arial;" x="1367.57" y="451.4765">AME</text>
		<rect class="range" height="26.087" width="10" x="564.96" y="460.87" />
		<line class="leaf" id="node_18" x1="564.96" x2="742.43" y1="473.9135" y2="473.9135" />
		<line class="linkage" x1="742.43" x2="1363.57" y1="473.9135" y2="473.9135" />
		<text class="leaf" style="font-size:10px;font-style:normal;fill:#ff0000;font-weight:bold;font-family:Arial;" x="1367.57" y="477.5635">PNA</text>
		<rect class="range" height="52.174" width="10" x="564.96" y="434.783" />
		<line class="clade" x1="564.96" x2="564.96" y1="447.8265" y2="473.9135" />
		<line class="clade" id="node_19" x1="476.22" x2="564.96" y1="460.87" y2="460.87" />
		<text class="bootstrap" x="530.94" y="478.01">100</text>
		<rect class="range" height="26.087" width="10" x="653.7" y="486.957" />
		<line class="leaf" id="node_20" x1="653.7" x2="831.17" y1="500.0005" y2="500.0005" />
		<line class="linkage" x1="831.17" x2="1363.57" y1="500.0005" y2="500.0005" />
		<text class="leaf" style="font-weight:bold;fill:#ff0000;font-style:normal;font-size:10px;font-family:Arial;" x="1367.57" y="503.6505">PFU</text>
		<rect class="range" height="26.087" width="10" x="653.7" y="513.044" />
		<line class="leaf" id="node_21" x1="653.7" x2="831.17" y1="526.0875" y2="526.0875" />
		<line class="linkage" x1="831.17" x2="1363.57" y1="526.0875" y2="526.0875" />
		<text class="leaf" style="font-style:normal;font-size:10px;font-weight:bold;fill:#ff0000;font-family:Arial;" x="1367.57" y="529.7375">GMA</text>
		<rect class="range" height="52.174" width="10" x="653.7" y="486.957" />
		<line class="clade" x1="653.7" x2="653.7" y1="500.0005" y2="526.0875" />
		<line class="clade" id="node_22" x1="564.96" x2="653.7" y1="513.044" y2="513.044" />
		<rect class="range" height="26.087" width="10" x="564.96" y="539.131" />
		<line class="leaf" id="node_23" x1="564.96" x2="742.43" y1="552.1745" y2="552.1745" />
		<line class="linkage" x1="742.43" x2="1363.57" y1="552.1745" y2="552.1745" />
		<text class="leaf" style="font-family:Arial;font-size:10px;font-style:normal;fill:#ff0000;font-weight:bold;" x="1367.57" y="555.8245">IPU</text>
		<rect class="range" height="65.2175" width="10" x="564.96" y="500.0005" />
		<line class="clade" x1="564.96" x2="564.96" y1="513.044" y2="552.1745" />
		<line class="clade" id="node_24" x1="476.22" x2="564.96" y1="532.60925" y2="532.60925" />
		<text class="bootstrap" x="530.94" y="549.74925">100</text>
		<rect class="range" height="97.82625" width="10" x="476.22" y="447.8265" />
		<line class="clade" x1="476.22" x2="476.22" y1="460.87" y2="532.60925" />
		<line class="clade" id="node_25" x1="387.48" x2="476.22" y1="496.739625" y2="496.739625" />
		<text class="bootstrap" x="452.2" y="513.879625">84</text>
		<rect class="range" height="139.810015625" width="10" x="387.48" y="369.973109375" />
		<line class="clade" x1="387.48" x2="387.48" y1="383.016609375" y2="496.739625" />
		<line class="clade" id="node_26" x1="298.74" x2="387.48" y1="439.8781171875" y2="439.8781171875" />
		<text class="bootstrap" x="363.46" y="457.0181171875">99</text>
		<rect class="range" height="26.087" width="10" x="387.48" y="565.218" />
		<line class="leaf" id="node_1" x1="387.48" x2="564.95" y1="578.2615" y2="578.2615" />
		<line class="linkage" x1="564.95" x2="1363.57" y1="578.2615" y2="578.2615" />
		<text class="leaf" style="font-family:Arial;font-style:normal;font-size:10px;font-weight:bold;fill:#ff0000;" x="1367.57" y="581.9115">PHY</text>
		<rect class="range" height="26.087" width="10" x="476.22" y="591.305" />
		<line class="leaf" id="node_29" x1="476.22" x2="653.69" y1="604.3485" y2="604.3485" />
		<line class="linkage" x1="653.69" x2="1363.57" y1="604.3485" y2="604.3485" />
		<text class="leaf" style="font-family:Arial;font-weight:bold;fill:#ff0000;font-style:normal;font-size:10px;" x="1367.57" y="607.9985">SAS</text>
		<rect class="range" height="26.087" width="10" x="476.22" y="617.392" />
		<line class="leaf" id="node_30" x1="476.22" x2="653.69" y1="630.4355" y2="630.4355" />
		<line class="linkage" x1="653.69" x2="1363.57" y1="630.4355" y2="630.4355" />
		<text class="leaf" style="font-family:Arial;font-style:normal;font-size:10px;font-weight:bold;fill:#ff0000;" x="1367.57" y="634.0855">ELU</text>
		<rect class="range" height="52.174" width="10" x="476.22" y="591.305" />
		<line class="clade" x1="476.22" x2="476.22" y1="604.3485" y2="630.4355" />
		<line class="clade" id="node_31" x1="387.48" x2="476.22" y1="617.392" y2="617.392" />
		<text class="bootstrap" x="452.2" y="634.532">96</text>
		<rect class="range" height="26.087" width="10" x="1008.66" y="643.479" />
		<line class="leaf" id="node_33" x1="1008.66" x2="1186.13" y1="656.5225" y2="656.5225" />
		<line class="linkage" x1="1186.13" x2="1363.57" y1="656.5225" y2="656.5225" />
		<text class="leaf" style="font-weight:bold;fill:#ff0000;font-style:normal;font-size:10px;font-family:Arial;" x="1367.57" y="660.1725">GAC</text>
		<rect class="range" height="26.087" width="10" x="1008.66" y="669.566" />
		<line class="leaf" id="node_34" x1="1008.66" x2="1186.13" y1="682.6095" y2="682.6095" />
		<line class="linkage" x1="1186.13" x2="1363.57" y1="682.6095" y2="682.6095" />
		<text class="leaf" x="1367.57" y="686.2595">LMA</text>
		<rect class="range" height="52.174" width="10" x="1008.66" y="643.479" />
		<line class="clade" x1="1008.66" x2="1008.66" y1="656.5225" y2="682.6095" />
		<line class="clade" id="node_35" x1="919.92" x2="1008.66" y1="669.566" y2="669.566" />
		<text class="bootstrap" x="984.64" y="686.706">73</text>
		<rect class="range" height="26.087" width="10" x="1008.66" y="695.653" />
		<line class="leaf" id="node_36" x1="1008.66" x2="1186.13" y1="708.6965" y2="708.6965" />
		<line class="linkage" x1="1186.13" x2="1363.57" y1="708.6965" y2="708.6965" />
		<text class="leaf" x="1367.57" y="712.3465">MMO</text>
		<rect class="range" height="26.087" width="10" x="1008.66" y="721.74" />
		<line class="leaf" id="node_37" x1="1008.66" x2="1186.13" y1="734.7835" y2="734.7835" />
		<line class="linkage" x1="1186.13" x2="1363.57" y1="734.7835" y2="734.7835" />
		<text class="leaf" x="1367.57" y="738.4335">SPE</text>
		<rect class="range" height="52.174" width="10" x="1008.66" y="695.653" />
		<line class="clade" x1="1008.66" x2="1008.66" y1="708.6965" y2="734.7835" />
		<line class="clade" id="node_38" x1="919.92" x2="1008.66" y1="721.74" y2="721.74" />
		<rect class="range" height="78.261" width="10" x="919.92" y="656.5225" />
		<line class="clade" x1="919.92" x2="919.92" y1="669.566" y2="721.74" />
		<line class="clade" id="node_39" x1="831.18" x2="919.92" y1="695.653" y2="695.653" />
		<rect class="range" height="26.087" width="10" x="919.92" y="747.827" />
		<line class="leaf" id="node_40" x1="919.92" x2="1097.39" y1="760.8705" y2="760.8705" />
		<line class="linkage" x1="1097.39" x2="1363.57" y1="760.8705" y2="760.8705" />
		<text class="leaf" x="1367.57" y="764.5205">DLA</text>
		<rect class="range" height="26.087" width="10" x="919.92" y="773.914" />
		<line class="leaf" id="node_41" x1="919.92" x2="1097.39" y1="786.9575" y2="786.9575" />
		<line class="linkage" x1="1097.39" x2="1363.57" y1="786.9575" y2="786.9575" />
		<text class="leaf" style="font-family:Arial;fill:#ff0000;font-weight:bold;font-size:10px;font-style:normal;" x="1367.57" y="790.6075">LBE</text>
		<rect class="range" height="52.174" width="10" x="919.92" y="747.827" />
		<line class="clade" x1="919.92" x2="919.92" y1="760.8705" y2="786.9575" />
		<line class="clade" id="node_42" x1="831.18" x2="919.92" y1="773.914" y2="773.914" />
		<rect class="range" height="104.348" width="10" x="831.18" y="682.6095" />
		<line class="clade" x1="831.18" x2="831.18" y1="695.653" y2="773.914" />
		<line class="clade" id="node_43" x1="742.44" x2="831.18" y1="734.7835" y2="734.7835" />
		<text class="bootstrap" x="797.16" y="751.9235">100</text>
		<rect class="range" height="26.087" width="10" x="1008.66" y="800.001" />
		<line class="leaf" id="node_44" x1="1008.66" x2="1186.13" y1="813.0445" y2="813.0445" />
		<line class="linkage" x1="1186.13" x2="1363.57" y1="813.0445" y2="813.0445" />
		<text class="leaf" style="font-family:Arial;font-style:normal;font-size:10px;font-weight:bold;fill:#ff0000;" x="1367.57" y="816.6945">TRU</text>
		<rect class="range" height="26.087" width="10" x="1008.66" y="826.088" />
		<line class="leaf" id="node_45" x1="1008.66" x2="1186.13" y1="839.1315" y2="839.1315" />
		<line class="linkage" x1="1186.13" x2="1363.57" y1="839.1315" y2="839.1315" />
		<text class="leaf" style="font-family:Arial;font-size:10px;font-style:normal;fill:#ff0000;font-weight:bold;" x="1367.57" y="842.7815">TNI</text>
		<rect class="range" height="52.174" width="10" x="1008.66" y="800.001" />
		<line class="clade" x1="1008.66" x2="1008.66" y1="813.0445" y2="839.1315" />
		<line class="clade" id="node_46" x1="919.92" x2="1008.66" y1="826.088" y2="826.088" />
		<text class="bootstrap" x="984.64" y="843.228">98</text>
		<rect class="range" height="26.087" width="10" x="919.92" y="852.175" />
		<line class="leaf" id="node_47" x1="919.92" x2="1097.39" y1="865.2185" y2="865.2185" />
		<line class="linkage" x1="1097.39" x2="1363.57" y1="865.2185" y2="865.2185" />
		<text class="leaf" x="1367.57" y="868.8685">BPO</text>
		<rect class="range" height="65.2175" width="10" x="919.92" y="813.0445" />
		<line class="clade" x1="919.92" x2="919.92" y1="826.088" y2="865.2185" />
		<line class="clade" id="node_48" x1="831.18" x2="919.92" y1="845.65325" y2="845.65325" />
		<rect class="range" height="26.087" width="10" x="831.18" y="878.262" />
		<line class="leaf" id="node_49" x1="831.18" x2="1008.65" y1="891.3055" y2="891.3055" />
		<line class="linkage" x1="1008.65" x2="1363.57" y1="891.3055" y2="891.3055" />
		<text class="leaf" x="1367.57" y="894.9555">LCR</text>
		<rect class="range" height="71.73925" width="10" x="831.18" y="832.60975" />
		<line class="clade" x1="831.18" x2="831.18" y1="845.65325" y2="891.3055" />
		<line class="clade" id="node_50" x1="742.44" x2="831.18" y1="868.479375" y2="868.479375" />
		<rect class="range" height="159.782875" width="10" x="742.44" y="721.74" />
		<line class="clade" x1="742.44" x2="742.44" y1="734.7835" y2="868.479375" />
		<line class="clade" id="node_51" x1="653.7" x2="742.44" y1="801.6314375" y2="801.6314375" />
		<rect class="range" height="26.087" width="10" x="653.7" y="904.349" />
		<line class="leaf" id="node_52" x1="653.7" x2="831.17" y1="917.3925" y2="917.3925" />
		<line class="linkage" x1="831.17" x2="1363.57" y1="917.3925" y2="917.3925" />
		<text class="leaf" x="1367.57" y="921.0425">NCO</text>
		<rect class="range" height="141.8480625" width="10" x="653.7" y="788.5879375" />
		<line class="clade" x1="653.7" x2="653.7" y1="801.6314375" y2="917.3925" />
		<line class="clade" id="node_53" x1="564.96" x2="653.7" y1="859.51196875" y2="859.51196875" />
		<rect class="range" height="26.087" width="10" x="1097.4" y="930.436" />
		<line class="leaf" id="node_54" x1="1097.4" x2="1274.87" y1="943.4795" y2="943.4795" />
		<line class="linkage" x1="1274.87" x2="1363.57" y1="943.4795" y2="943.4795" />
		<text class="leaf" x="1367.57" y="947.1295">SDU</text>
		<rect class="range" height="26.087" width="10" x="1186.14" y="956.523" />
		<line class="leaf" id="node_55" x1="1186.14" x2="1363.61" y1="969.5665" y2="969.5665" />
		<text class="leaf" x="1367.57" y="973.2165">SQU</text>
		<rect class="range" height="26.087" width="10" x="1186.14" y="982.61" />
		<line class="leaf" id="node_56" x1="1186.14" x2="1363.61" y1="995.6535" y2="995.6535" />
		<text class="leaf" x="1367.57" y="999.3035">SLA</text>
		<rect class="range" height="52.174" width="10" x="1186.14" y="956.523" />
		<line class="clade" x1="1186.14" x2="1186.14" y1="969.5665" y2="995.6535" />
		<line class="clade" id="node_57" x1="1097.4" x2="1186.14" y1="982.61" y2="982.61" />
		<text class="bootstrap" x="1162.12" y="999.75">95</text>
		<rect class="range" height="65.2175" width="10" x="1097.4" y="930.436" />
		<line class="clade" x1="1097.4" x2="1097.4" y1="943.4795" y2="982.61" />
		<line class="clade" id="node_58" x1="1008.66" x2="1097.4" y1="963.04475" y2="963.04475" />
		<text class="bootstrap" x="1063.38" y="980.18475">100</text>
		<rect class="range" height="26.087" width="10" x="1008.66" y="1008.697" />
		<line class="leaf" id="node_59" x1="1008.66" x2="1186.13" y1="1021.7405" y2="1021.7405" />
		<line class="linkage" x1="1186.13" x2="1363.57" y1="1021.7405" y2="1021.7405" />
		<text class="leaf" x="1367.57" y="1025.3905">LCA</text>
		<rect class="range" height="84.78275" width="10" x="1008.66" y="950.00125" />
		<line class="clade" x1="1008.66" x2="1008.66" y1="963.04475" y2="1021.7405" />
		<line class="clade" id="node_60" x1="919.92" x2="1008.66" y1="992.392625" y2="992.392625" />
		<text class="bootstrap" x="984.64" y="1009.532625">81</text>
		<rect class="range" height="26.087" width="10" x="1097.4" y="1034.784" />
		<line class="leaf" id="node_61" x1="1097.4" x2="1274.87" y1="1047.8275" y2="1047.8275" />
		<line class="linkage" x1="1274.87" x2="1363.57" y1="1047.8275" y2="1047.8275" />
		<text class="leaf" x="1367.57" y="1051.4775">SMA</text>
		<rect class="range" height="26.087" width="10" x="1097.4" y="1060.871" />
		<line class="leaf" id="node_62" x1="1097.4" x2="1274.87" y1="1073.9145" y2="1073.9145" />
		<line class="linkage" x1="1274.87" x2="1363.57" y1="1073.9145" y2="1073.9145" />
		<text class="leaf" x="1367.57" y="1077.5645">POL</text>
		<rect class="range" height="52.174" width="10" x="1097.4" y="1034.784" />
		<line class="clade" x1="1097.4" x2="1097.4" y1="1047.8275" y2="1073.9145" />
		<line class="clade" id="node_63" x1="1008.66" x2="1097.4" y1="1060.871" y2="1060.871" />
		<text class="bootstrap" x="1073.38" y="1078.011">71</text>
		<rect class="range" height="26.087" width="10" x="1008.66" y="1086.958" />
		<line class="leaf" id="node_64" x1="1008.66" x2="1186.13" y1="1100.0015" y2="1100.0015" />
		<line class="linkage" x1="1186.13" x2="1363.57" y1="1100.0015" y2="1100.0015" />
		<text class="leaf" x="1367.57" y="1103.6515">CSE</text>
		<rect class="range" height="65.2175" width="10" x="1008.66" y="1047.8275" />
		<line class="clade" x1="1008.66" x2="1008.66" y1="1060.871" y2="1100.0015" />
		<line class="clade" id="node_65" x1="919.92" x2="1008.66" y1="1080.43625" y2="1080.43625" />
		<rect class="range" height="114.130625" width="10" x="919.92" y="979.349125" />
		<line class="clade" x1="919.92" x2="919.92" y1="992.392625" y2="1080.43625" />
		<line class="clade" id="node_66" x1="831.18" x2="919.92" y1="1036.4144375" y2="1036.4144375" />
		<text class="bootstrap" x="895.9" y="1053.5544375">95</text>
		<rect class="range" height="26.087" width="10" x="1008.66" y="1113.045" />
		<line class="leaf" id="node_67" x1="1008.66" x2="1186.13" y1="1126.0885" y2="1126.0885" />
		<line class="linkage" x1="1186.13" x2="1363.57" y1="1126.0885" y2="1126.0885" />
		<text class="leaf" x="1367.57" y="1129.7385">CAR</text>
		<rect class="range" height="26.087" width="10" x="1008.66" y="1139.132" />
		<line class="leaf" id="node_68" x1="1008.66" x2="1186.13" y1="1152.1755" y2="1152.1755" />
		<line class="linkage" x1="1186.13" x2="1363.57" y1="1152.1755" y2="1152.1755" />
		<text class="leaf" x="1367.57" y="1155.8255">ATE</text>
		<rect class="range" height="52.174" width="10" x="1008.66" y="1113.045" />
		<line class="clade" x1="1008.66" x2="1008.66" y1="1126.0885" y2="1152.1755" />
		<line class="clade" id="node_69" x1="919.92" x2="1008.66" y1="1139.132" y2="1139.132" />
		<text class="bootstrap" x="984.64" y="1156.272">68</text>
		<rect class="range" height="26.087" width="10" x="919.92" y="1165.219" />
		<line class="leaf" id="node_70" x1="919.92" x2="1097.39" y1="1178.2625" y2="1178.2625" />
		<line class="linkage" x1="1097.39" x2="1363.57" y1="1178.2625" y2="1178.2625" />
		<text class="leaf" style="font-size:10px;font-style:normal;fill:#ff0000;font-weight:bold;font-family:Arial;" x="1367.57" y="1181.9125">MAR</text>
		<rect class="range" height="65.2175" width="10" x="919.92" y="1126.0885" />
		<line class="clade" x1="919.92" x2="919.92" y1="1139.132" y2="1178.2625" />
		<line class="clade" id="node_71" x1="831.18" x2="919.92" y1="1158.69725" y2="1158.69725" />
		<text class="bootstrap" x="895.9" y="1175.83725">87</text>
		<rect class="range" height="148.3698125" width="10" x="831.18" y="1023.3709375" />
		<line class="clade" x1="831.18" x2="831.18" y1="1036.4144375" y2="1158.69725" />
		<line class="clade" id="node_72" x1="742.44" x2="831.18" y1="1097.55584375" y2="1097.55584375" />
		<text class="bootstrap" x="807.16" y="1114.69584375">76</text>
		<rect class="range" height="26.087" width="10" x="1008.66" y="1191.306" />
		<line class="leaf" id="node_73" x1="1008.66" x2="1186.13" y1="1204.3495" y2="1204.3495" />
		<line class="linkage" x1="1186.13" x2="1363.57" y1="1204.3495" y2="1204.3495" />
		<text class="leaf" style="font-family:Arial;font-weight:bold;fill:#ff0000;font-style:normal;font-size:10px;" x="1367.57" y="1207.9995">OME</text>
		<rect class="range" height="26.087" width="10" x="1008.66" y="1217.393" />
		<line class="leaf" id="node_74" x1="1008.66" x2="1186.13" y1="1230.4365" y2="1230.4365" />
		<line class="linkage" x1="1186.13" x2="1363.57" y1="1230.4365" y2="1230.4365" />
		<text class="leaf" style="font-size:10px;font-style:normal;fill:#ff0000;font-weight:bold;font-family:Arial;" x="1367.57" y="1234.0865">OLA</text>
		<rect class="range" height="52.174" width="10" x="1008.66" y="1191.306" />
		<line class="clade" x1="1008.66" x2="1008.66" y1="1204.3495" y2="1230.4365" />
		<line class="clade" id="node_75" x1="919.92" x2="1008.66" y1="1217.393" y2="1217.393" />
		<text class="bootstrap" x="974.64" y="1234.533">100</text>
		<rect class="range" height="26.087" width="10" x="1008.66" y="1243.48" />
		<line class="leaf" id="node_76" x1="1008.66" x2="1186.13" y1="1256.5235" y2="1256.5235" />
		<line class="linkage" x1="1186.13" x2="1363.57" y1="1256.5235" y2="1256.5235" />
		<text class="leaf" style="font-family:Arial;font-style:normal;font-size:10px;font-weight:bold;fill:#ff0000;" x="1367.57" y="1260.1735">ACI</text>
		<rect class="range" height="26.087" width="10" x="1097.4" y="1269.567" />
		<line class="leaf" id="node_77" x1="1097.4" x2="1274.87" y1="1282.6105" y2="1282.6105" />
		<line class="linkage" x1="1274.87" x2="1363.57" y1="1282.6105" y2="1282.6105" />
		<text class="leaf" style="font-style:normal;font-size:10px;font-weight:bold;fill:#ff0000;font-family:Arial;" x="1367.57" y="1286.2605">APO</text>
		<rect class="range" height="26.087" width="10" x="1097.4" y="1295.654" />
		<line class="leaf" id="node_78" x1="1097.4" x2="1274.87" y1="1308.6975" y2="1308.6975" />
		<line class="linkage" x1="1274.87" x2="1363.57" y1="1308.6975" y2="1308.6975" />
		<text class="leaf" style="fill:#ff0000;font-weight:bold;font-size:10px;font-style:normal;font-family:Arial;" x="1367.57" y="1312.3475">AOC</text>
		<rect class="range" height="52.174" width="10" x="1097.4" y="1269.567" />
		<line class="clade" x1="1097.4" x2="1097.4" y1="1282.6105" y2="1308.6975" />
		<line class="clade" id="node_79" x1="1008.66" x2="1097.4" y1="1295.654" y2="1295.654" />
		<text class="bootstrap" x="1063.38" y="1312.794">100</text>
		<rect class="range" height="65.2175" width="10" x="1008.66" y="1243.48" />
		<line class="clade" x1="1008.66" x2="1008.66" y1="1256.5235" y2="1295.654" />
		<line class="clade" id="node_80" x1="919.92" x2="1008.66" y1="1276.08875" y2="1276.08875" />
		<rect class="range" height="84.7827500000001" width="10" x="919.92" y="1204.3495" />
		<line class="clade" x1="919.92" x2="919.92" y1="1217.393" y2="1276.08875" />
		<line class="clade" id="node_81" x1="831.18" x2="919.92" y1="1246.740875" y2="1246.740875" />
		<rect class="range" height="26.087" width="10" x="831.18" y="1321.741" />
		<line class="leaf" id="node_82" x1="831.18" x2="1008.65" y1="1334.7845" y2="1334.7845" />
		<line class="linkage" x1="1008.65" x2="1363.57" y1="1334.7845" y2="1334.7845" />
		<text class="leaf" x="1367.57" y="1338.4345">TOR</text>
		<rect class="range" height="114.130625" width="10" x="831.18" y="1233.697375" />
		<line class="clade" x1="831.18" x2="831.18" y1="1246.740875" y2="1334.7845" />
		<line class="clade" id="node_83" x1="742.44" x2="831.18" y1="1290.7626875" y2="1290.7626875" />
		<rect class="range" height="219.29384375" width="10" x="742.44" y="1084.51234375" />
		<line class="clade" x1="742.44" x2="742.44" y1="1097.55584375" y2="1290.7626875" />
		<line class="clade" id="node_84" x1="653.7" x2="742.44" y1="1194.159265625" y2="1194.159265625" />
		<rect class="range" height="26.087" width="10" x="653.7" y="1347.828" />
		<line class="leaf" id="node_85" x1="653.7" x2="831.17" y1="1360.8715" y2="1360.8715" />
		<line class="linkage" x1="831.17" x2="1363.57" y1="1360.8715" y2="1360.8715" />
		<text class="leaf" style="fill:#ff0000;font-weight:bold;font-size:10px;font-style:normal;font-family:Arial;" x="1367.57" y="1364.5215">PMA</text>
		<rect class="range" height="192.799234375" width="10" x="653.7" y="1181.115765625" />
		<line class="clade" x1="653.7" x2="653.7" y1="1194.159265625" y2="1360.8715" />
		<line class="clade" id="node_86" x1="564.96" x2="653.7" y1="1277.5153828125" y2="1277.5153828125" />
		<rect class="range" height="444.0904140625" width="10" x="564.96" y="846.46846875" />
		<line class="clade" x1="564.96" x2="564.96" y1="859.51196875" y2="1277.5153828125" />
		<line class="clade" id="node_87" x1="476.22" x2="564.96" y1="1068.51367578125" y2="1068.51367578125" />
		<text class="bootstrap" x="540.94" y="1085.65367578125">70</text>
		<rect class="range" height="26.087" width="10" x="476.22" y="1373.915" />
		<line class="leaf" id="node_88" x1="476.22" x2="653.69" y1="1386.9585" y2="1386.9585" />
		<line class="linkage" x1="653.69" x2="1363.57" y1="1386.9585" y2="1386.9585" />
		<text class="leaf" x="1367.57" y="1390.6085">GMO</text>
		<rect class="range" height="344.53182421875" width="10" x="476.22" y="1055.47017578125" />
		<line class="clade" x1="476.22" x2="476.22" y1="1068.51367578125" y2="1386.9585" />
		<line class="clade" id="node_89" x1="387.48" x2="476.22" y1="1227.73608789062" y2="1227.73608789062" />
		<rect class="range" height="675.561587890625" width="10" x="387.48" y="565.218" />
		<line class="clade" x1="387.48" x2="387.48" y1="578.2615" y2="1227.73608789062" />
		<line class="clade" id="node_32" x1="298.74" x2="387.48" y1="902.998793945312" y2="902.998793945312" />
		<rect class="range" height="489.207676757812" width="10" x="298.74" y="426.8346171875" />
		<line class="clade" x1="298.74" x2="298.74" y1="439.8781171875" y2="902.998793945312" />
		<line class="clade" id="node_28" x1="210" x2="298.74" y1="671.438455566406" y2="671.438455566406" />
		<rect class="range" height="484.481955566406" width="10" x="210" y="200" />
		<line class="clade" x1="210" x2="210" y1="213.0435" y2="671.438455566406" />
		<line class="tail" id="node_90" x1="200" x2="210" y1="442.240977783203" y2="442.240977783203" />
	</g>
</svg>