<svg height="1600" id="sbv1" width="1600" xmlns="http://www.w3.org/2000/svg" xmlns:svg="http://www.w3.org/2000/svg" xmlns:xlink="http://www.w3.org/1999/xlink">
	<title id="sbv-title">The graph of SBV tree</title>
	<desc id="sbv-desc">This graph was generated by SBV which was written by Peng. E-mail is aipeng0520@163.com</desc>
	<defs id="defs2">
		<style type="text/css"><![CDATA[rect.range {
fill-opacity: 1;
fill: none;
stroke: #000000;
stroke-width: 0;
}

rect.marker {
stroke-width: 0;
stroke: #000000;
}

rect.selectot {
stroke: #000000;
stroke-width: 1;
}

rect {
fill: none;
stroke: #000000;
stroke-width: 1;
}

rect.heatmap {
stroke-width: 0;
stroke: #000000;
}

circle.marker {
stroke-width: 0;
fill-opacity: 0.7;
}

path.clade {
stroke-width: 1;
fill: none;
stroke: #000000;
fill-opacity: 1;
}

path.heatmap {
stroke-width: 0;
stroke: #000000;
}

path.pie {
stroke-width: 0;
fill-opacity: 0.7;
}

path.selectot {
stroke-width: 1;
stroke: #000000;
}

path.range {
stroke-width: 0;
fill-opacity: 1;
fill: none;
stroke: #000000;
}

path.marker {
stroke-width: 0;
stroke: #000000;
}

marker.arrow {
stroke-width: 0;
stroke: #000000;
fill: #000000;
}

line.hgt {
stroke-width: 1;
}

line.tail {
stroke: #000000;
stroke-width: 1;
}

line.scale {
stroke: #000000;
stroke-width: 2;
}

line.clade {
stroke: #000000;
}

line {
stroke-width: 1;
stroke: #000000;
}

line.linkage {
stroke: #444444;
stroke-width: 1;
}

text.scale {
font-weight: bold;
}

text {
fill: #000000;
font-weight: normal;
font-family: Arial;
fill-opacity: 1;
font-style: normal;
font-size: 18px;
stroke-width: 0;
}

text.leaf {
font-style: normal;
font-size: 10px;
font-weight: bold;
}

text.clade_id {
font-size: 14px;
dominant-baseline: middle;
font-style: normal;
font-weight: bold;
}

svg {
stroke-width: 1;
fill-opacity: 1;
stroke: #000000;
fill: none;
}

]]></style>
	</defs>
	<g class="border" id="g3" />
	<rect class="background" height="1200" style="fill: #ffffff; stroke-width: 0" width="1200" x="200" y="200" />
	<g id="tree4" />
	<g id="tree5">
		<rect class="range" height="75" width="10" x="210" y="200" />
		<line class="leaf" id="node_27" x1="210" x2="440.82" y1="237.5" y2="237.5" />
		<line class="linkage" x1="440.82" x2="1364.12" y1="237.5" y2="237.5" />
		<text class="leaf" style="font-style:normal;font-size:10px;font-weight:bold;font-family:Arial;fill:#ff0000;" x="1368.12" y="241.15">LOC</text>
		<rect class="range" height="75" width="10" x="902.46" y="275" />
		<line class="leaf" id="node_2" x1="902.46" x2="1133.28" y1="312.5" y2="312.5" />
		<line class="linkage" x1="1133.28" x2="1364.12" y1="312.5" y2="312.5" />
		<text class="leaf" style="font-size:10px;font-style:normal;fill:#ff0000;font-family:Arial;font-weight:bold;" x="1368.12" y="316.15">CCA</text>
		<rect class="range" height="75" width="10" x="1133.28" y="350" />
		<line class="leaf" id="node_3" x1="1133.28" x2="1364.1" y1="387.5" y2="387.5" />
		<text class="leaf" style="font-size:10px;font-style:normal;font-family:Arial;font-weight:bold;fill:#ff0000;" x="1368.12" y="391.15">SAN</text>
		<rect class="range" height="75" width="10" x="1133.28" y="425" />
		<line class="leaf" id="node_4" x1="1133.28" x2="1364.1" y1="462.5" y2="462.5" />
		<text class="leaf" style="font-style:normal;font-size:10px;font-weight:bold;font-family:Arial;fill:#ff0000;" x="1368.12" y="466.15">SGR</text>
		<rect class="range" height="150" width="10" x="1133.28" y="350" />
		<line class="clade" x1="1133.28" x2="1133.28" y1="387.5" y2="462.5" />
		<line class="clade" id="node_5" x1="1017.87" x2="1133.28" y1="425" y2="425" />
		<text class="bootstrap" x="1109.26" y="442.14">62</text>
		<rect class="range" height="75" width="10" x="1017.87" y="500" />
		<line class="leaf" id="node_6" x1="1017.87" x2="1248.69" y1="537.5" y2="537.5" />
		<line class="linkage" x1="1248.69" x2="1364.12" y1="537.5" y2="537.5" />
		<text class="leaf" style="font-family:Arial;font-weight:bold;fill:#ff0000;font-size:10px;font-style:normal;" x="1368.12" y="541.15">SRH</text>
		<rect class="range" height="187.5" width="10" x="1017.87" y="387.5" />
		<line class="clade" x1="1017.87" x2="1017.87" y1="425" y2="537.5" />
		<line class="clade" id="node_7" x1="902.46" x2="1017.87" y1="481.25" y2="481.25" />
		<text class="bootstrap" x="993.85" y="498.39">92</text>
		<rect class="range" height="243.75" width="10" x="902.46" y="275" />
		<line class="clade" x1="902.46" x2="902.46" y1="312.5" y2="481.25" />
		<line class="clade" id="node_8" x1="787.05" x2="902.46" y1="396.875" y2="396.875" />
		<rect class="range" height="75" width="10" x="787.05" y="575" />
		<line class="leaf" id="node_9" x1="787.05" x2="1017.87" y1="612.5" y2="612.5" />
		<line class="linkage" x1="1017.87" x2="1364.12" y1="612.5" y2="612.5" />
		<text class="leaf" style="font-family:Arial;font-weight:bold;fill:#ff0000;font-size:10px;font-style:normal;" x="1368.12" y="616.15">CAU</text>
		<rect class="range" height="290.625" width="10" x="787.05" y="359.375" />
		<line class="clade" x1="787.05" x2="787.05" y1="396.875" y2="612.5" />
		<line class="clade" id="node_10" x1="671.64" x2="787.05" y1="504.6875" y2="504.6875" />
		<text class="bootstrap" x="763.03" y="521.8275">95</text>
		<rect class="range" height="75" width="10" x="787.05" y="650" />
		<line class="leaf" id="node_11" x1="787.05" x2="1017.87" y1="687.5" y2="687.5" />
		<line class="linkage" x1="1017.87" x2="1364.12" y1="687.5" y2="687.5" />
		<text class="leaf" x="1368.12" y="691.15">CID</text>
		<rect class="range" height="75" width="10" x="787.05" y="725" />
		<line class="leaf" id="node_12" x1="787.05" x2="1017.87" y1="762.5" y2="762.5" />
		<line class="linkage" x1="1017.87" x2="1364.12" y1="762.5" y2="762.5" />
		<text class="leaf" style="fill:#ff0000;font-weight:bold;font-family:Arial;font-style:normal;font-size:10px;" x="1368.12" y="766.15">MAM</text>
		<rect class="range" height="150" width="10" x="787.05" y="650" />
		<line class="clade" x1="787.05" x2="787.05" y1="687.5" y2="762.5" />
		<line class="clade" id="node_13" x1="671.64" x2="787.05" y1="725" y2="725" />
		<text class="bootstrap" x="753.03" y="742.14">100</text>
		<rect class="range" height="295.3125" width="10" x="671.64" y="467.1875" />
		<line class="clade" x1="671.64" x2="671.64" y1="504.6875" y2="725" />
		<line class="clade" id="node_14" x1="556.23" x2="671.64" y1="614.84375" y2="614.84375" />
		<text class="bootstrap" x="647.62" y="631.98375">88</text>
		<rect class="range" height="75" width="10" x="556.23" y="800" />
		<line class="leaf" id="node_15" x1="556.23" x2="787.05" y1="837.5" y2="837.5" />
		<line class="linkage" x1="787.05" x2="1364.12" y1="837.5" y2="837.5" />
		<text class="leaf" x="1368.12" y="841.15">DRE</text>
		<rect class="range" height="297.65625" width="10" x="556.23" y="577.34375" />
		<line class="clade" x1="556.23" x2="556.23" y1="614.84375" y2="837.5" />
		<line class="clade" id="node_16" x1="440.82" x2="556.23" y1="726.171875" y2="726.171875" />
		<text class="bootstrap" x="522.21" y="743.311875">100</text>
		<rect class="range" height="75" width="10" x="671.64" y="875" />
		<line class="leaf" id="node_17" x1="671.64" x2="902.46" y1="912.5" y2="912.5" />
		<line class="linkage" x1="902.46" x2="1364.12" y1="912.5" y2="912.5" />
		<text class="leaf" style="font-size:10px;font-style:normal;font-family:Arial;font-weight:bold;fill:#ff0000;" x="1368.12" y="916.15">AME</text>
		<rect class="range" height="75" width="10" x="671.64" y="950" />
		<line class="leaf" id="node_18" x1="671.64" x2="902.46" y1="987.5" y2="987.5" />
		<line class="linkage" x1="902.46" x2="1364.12" y1="987.5" y2="987.5" />
		<text class="leaf" style="fill:#ff0000;font-family:Arial;font-weight:bold;font-size:10px;font-style:normal;" x="1368.12" y="991.15">PNA</text>
		<rect class="range" height="150" width="10" x="671.64" y="875" />
		<line class="clade" x1="671.64" x2="671.64" y1="912.5" y2="987.5" />
		<line class="clade" id="node_19" x1="556.23" x2="671.64" y1="950" y2="950" />
		<text class="bootstrap" x="637.62" y="967.14">100</text>
		<rect class="range" height="75" width="10" x="787.05" y="1025" />
		<line class="leaf" id="node_20" x1="787.05" x2="1017.87" y1="1062.5" y2="1062.5" />
		<line class="linkage" x1="1017.87" x2="1364.12" y1="1062.5" y2="1062.5" />
		<text class="leaf" style="font-family:Arial;font-weight:bold;fill:#ff0000;font-size:10px;font-style:normal;" x="1368.12" y="1066.15">PFU</text>
		<rect class="range" height="75" width="10" x="787.05" y="1100" />
		<line class="leaf" id="node_21" x1="787.05" x2="1017.87" y1="1137.5" y2="1137.5" />
		<line class="linkage" x1="1017.87" x2="1364.12" y1="1137.5" y2="1137.5" />
		<text class="leaf" style="font-style:normal;font-size:10px;font-weight:bold;font-family:Arial;fill:#ff0000;" x="1368.12" y="1141.15">GMA</text>
		<rect class="range" height="150" width="10" x="787.05" y="1025" />
		<line class="clade" x1="787.05" x2="787.05" y1="1062.5" y2="1137.5" />
		<line class="clade" id="node_22" x1="671.64" x2="787.05" y1="1100" y2="1100" />
		<rect class="range" height="75" width="10" x="671.64" y="1175" />
		<line class="leaf" id="node_23" x1="671.64" x2="902.46" y1="1212.5" y2="1212.5" />
		<line class="linkage" x1="902.46" x2="1364.12" y1="1212.5" y2="1212.5" />
		<text class="leaf" style="font-style:normal;font-size:10px;font-weight:bold;font-family:Arial;fill:#ff0000;" x="1368.12" y="1216.15">IPU</text>
		<rect class="range" height="187.5" width="10" x="671.64" y="1062.5" />
		<line class="clade" x1="671.64" x2="671.64" y1="1100" y2="1212.5" />
		<line class="clade" id="node_24" x1="556.23" x2="671.64" y1="1156.25" y2="1156.25" />
		<text class="bootstrap" x="637.62" y="1173.39">100</text>
		<rect class="range" height="281.25" width="10" x="556.23" y="912.5" />
		<line class="clade" x1="556.23" x2="556.23" y1="950" y2="1156.25" />
		<line class="clade" id="node_25" x1="440.82" x2="556.23" y1="1053.125" y2="1053.125" />
		<text class="bootstrap" x="532.21" y="1070.265">84</text>
		<rect class="range" height="401.953125" width="10" x="440.82" y="688.671875" />
		<line class="clade" x1="440.82" x2="440.82" y1="726.171875" y2="1053.125" />
		<line class="clade" id="node_26" x1="325.41" x2="440.82" y1="889.6484375" y2="889.6484375" />
		<text class="bootstrap" x="416.8" y="906.7884375">99</text>
		<rect class="range" height="75" width="10" x="556.23" y="1250" />
		<line class="leaf" id="node_29" x1="556.23" x2="787.05" y1="1287.5" y2="1287.5" />
		<line class="linkage" x1="787.05" x2="1364.12" y1="1287.5" y2="1287.5" />
		<text class="leaf" style="fill:#ff0000;font-weight:bold;font-family:Arial;font-style:normal;font-size:10px;" x="1368.12" y="1291.15">SAS</text>
		<rect class="range" height="75" width="10" x="556.23" y="1325" />
		<line class="leaf" id="node_30" x1="556.23" x2="787.05" y1="1362.5" y2="1362.5" />
		<line class="linkage" x1="787.05" x2="1364.12" y1="1362.5" y2="1362.5" />
		<text class="leaf" style="font-style:normal;font-size:10px;fill:#ff0000;font-weight:bold;font-family:Arial;" x="1368.12" y="1366.15">ELU</text>
		<rect class="range" height="150" width="10" x="556.23" y="1250" />
		<line class="clade" x1="556.23" x2="556.23" y1="1287.5" y2="1362.5" />
		<line class="clade" id="node_31" x1="440.82" x2="556.23" y1="1325" y2="1325" />
		<text class="bootstrap" x="532.21" y="1342.14">96</text>
		<rect class="range" height="75" width="10" x="440.82" y="1287.5" />
		<line class="clade" x1="440.82" x2="440.82" y1="1325" y2="1325" />
		<line class="clade" id="node_32" x1="325.41" x2="440.82" y1="1325" y2="1325" />
		<rect class="range" height="510.3515625" width="10" x="325.41" y="852.1484375" />
		<line class="clade" x1="325.41" x2="325.41" y1="889.6484375" y2="1325" />
		<line class="clade" id="node_28" x1="210" x2="325.41" y1="1107.32421875" y2="1107.32421875" />
		<rect class="range" height="944.82421875" width="10" x="210" y="200" />
		<line class="clade" x1="210" x2="210" y1="237.5" y2="1107.32421875" />
		<line class="tail" id="node_90" x1="200" x2="210" y1="672.412109375" y2="672.412109375" />
	</g>
</svg>