<svg height="500" id="sbv1" width="1200" xmlns="http://www.w3.org/2000/svg" xmlns:svg="http://www.w3.org/2000/svg" xmlns:xlink="http://www.w3.org/1999/xlink">
	<title id="sbv-title">The graph of SBV taxtree</title>
	<desc id="sbv-desc">This graph was generated by SBV which was written by Peng. E-mail is aipeng0520@163.com</desc>
	<defs id="defs2">
		<symbol class="symbol" id="symbol143" viewBox="0 0 20 20">
			<rect height="18" style="stroke-width: 1; stroke: #000; fill: #ff0000; fill-opacity: 1" width="18" x="1" y="1" />
		</symbol>
		<symbol class="symbol" id="symbol144" viewBox="0 0 20 20">
			<rect height="18" style="stroke-width: 1; fill-opacity: 1; fill: #ffd400; stroke: #000" width="18" x="1" y="1" />
		</symbol>
		<symbol class="symbol" id="symbol145" viewBox="0 0 20 20">
			<rect height="18" style="stroke-width: 1; fill: #54ff00; stroke: #000; fill-opacity: 1" width="18" x="1" y="1" />
		</symbol>
		<symbol class="symbol" id="symbol146" viewBox="0 0 20 20">
			<rect height="18" style="stroke-width: 1; stroke: #000; fill: #00ff7f; fill-opacity: 1" width="18" x="1" y="1" />
		</symbol>
		<symbol class="symbol" id="symbol147" viewBox="0 0 20 20">
			<rect height="18" style="stroke-width: 1; stroke: #000; fill: #00a9ff; fill-opacity: 1" width="18" x="1" y="1" />
		</symbol>
		<symbol class="symbol" id="symbol148" viewBox="0 0 20 20">
			<rect height="18" style="fill: #2a00ff; stroke: #000; fill-opacity: 1; stroke-width: 1" width="18" x="1" y="1" />
		</symbol>
		<style type="text/css"><![CDATA[text.leaf {
font-size: 10px;
font-weight: bold;
font-style: normal;
}

text {
font-size: 12px;
fill-opacity: 1;
font-family: Arial;
font-weight: normal;
fill: #000000;
font-style: normal;
stroke-width: 0;
}

text.scale {
font-weight: bold;
}

svg {
fill-opacity: 1;
stroke: #000000;
fill: none;
stroke-width: 1;
}

line.tail {
stroke-width: 1;
}

line.scale {
stroke-width: 2;
}

line.linkage {
stroke-width: 1;
stroke: #444444;
stroke-dasharray: 4 4;
}

line.hgt {
stroke-width: 1;
}

line {
stroke-width: 1;
stroke: #000000;
}

circle.marker {
fill-opacity: 0.7;
stroke-width: 0;
}

marker.arrow {
stroke-width: 0;
fill: #000000;
stroke: #000000;
}

path.heatmap {
stroke: #000000;
stroke-width: 0;
}

path.range {
stroke-width: 0;
fill: none;
stroke: #000000;
fill-opacity: 1;
}

path.marker {
stroke: #000000;
stroke-width: 0;
}

path.pie {
fill-opacity: 1;
stroke-width: 0;
}

path.selectot {
stroke-width: 1;
stroke: #000000;
}

path.clade {
fill-opacity: 1;
stroke: #000000;
fill: none;
stroke-width: 1;
}

rect.marker {
stroke: #000000;
stroke-width: 0;
}

rect.range {
fill: none;
stroke: #000000;
fill-opacity: 1;
stroke-width: 0;
}

rect {
stroke: #000000;
fill: none;
stroke-width: 1;
}

rect.heatmap {
stroke-width: 0;
stroke: #000000;
}

rect.selectot {
stroke-width: 1;
stroke: #000000;
}

]]></style>
	</defs>
	<g id="tree3">
		<line style="stroke:#000;stroke-width:2" x1="792.5" x2="935.65" y1="45.5555" y2="45.5555" />
		<g id="g4" transform="translate(935.65,45.5555)">
			<path class="pie" d="M0 -10.25896 A10.2589628882868 10.2589628882868 0 0 1 6.5349 7.90831 L0 0 A0 0 0 0 0 0 0 Z" style="fill: #ff0000" />
		</g>
		<g id="g5" transform="translate(935.65,45.5555)">
			<path class="pie" d="M6.5349 7.90831 A10.2589628882868 10.2589628882868 2.451 0 1 -4.69508 9.12154 L0 0 A0 0 2.451 0 0 0 0 Z" style="fill: #ffd400" />
		</g>
		<g id="g6" transform="translate(935.65,45.5555)">
			<path class="pie" d="M-4.69508 9.12154 A10.2589628882868 10.2589628882868 3.61695 0 1 -0.57333 -10.24293 L0 0 A0 0 3.61695 0 0 0 0 Z" style="fill: #54ff00" />
		</g>
		<g id="g7" transform="translate(935.65,45.5555)">
			<path class="pie" d="M-0.57333 -10.24293 A10.2589628882868 10.2589628882868 6.22727 0 1 -0.43982 -10.24953 L0 0 A0 0 6.22727 0 0 0 0 Z" style="fill: #00ff7f" />
		</g>
		<g id="g8" transform="translate(935.65,45.5555)">
			<path class="pie" d="M-0.43982 -10.24953 A10.2589628882868 10.2589628882868 6.2403 0 1 -0.35956 -10.25266 L0 0 A0 0 6.2403 0 0 0 0 Z" style="fill: #00a9ff" />
		</g>
		<g id="g9" transform="translate(935.65,45.5555)">
			<path class="pie" d="M-0.35956 -10.25266 A10.2589628882868 10.2589628882868 6.24813 0 1 5e-05 -10.25896 L0 0 A0 0 6.24813 0 0 0 0 Z" style="fill: #2a00ff" />
		</g>
		<circle cx="935.65" cy="45.5555" r="10.2589628882868" style="fill:none;stroke:#000000;stroke-width:1" />
		<g >
			<text class="leaf" x="959.65" y="43.5555">Vagococcus</text>
			<text class="leaf" x="959.65" y="54.8555">2.766%</text>
		</g>
		<line style="stroke:#000;stroke-width:2" x1="792.5" x2="935.65" y1="96.6665" y2="96.6665" />
		<g id="g10" transform="translate(935.65,96.6665)">
			<path class="pie" d="M0 -10.02187 A10.0218690273665 10.0218690273665 0 0 1 4.99864 8.68628 L0 0 A0 0 0 0 0 0 0 Z" style="fill: #ff0000" />
		</g>
		<g id="g11" transform="translate(935.65,96.6665)">
			<path class="pie" d="M4.99864 8.68628 A10.0218690273665 10.0218690273665 2.61941 0 1 -9.91281 1.47445 L0 0 A0 0 2.61941 0 0 0 0 Z" style="fill: #ffd400" />
		</g>
		<g id="g12" transform="translate(935.65,96.6665)">
			<path class="pie" d="M-9.91281 1.47445 A10.0218690273665 10.0218690273665 4.56473 0 1 -7.21744 -6.95316 L0 0 A0 0 4.56473 0 0 0 0 Z" style="fill: #54ff00" />
		</g>
		<g id="g13" transform="translate(935.65,96.6665)">
			<path class="pie" d="M-7.21744 -6.95316 A10.0218690273665 10.0218690273665 5.47914 0 1 -4.25978 -9.0715 L0 0 A0 0 5.47914 0 0 0 0 Z" style="fill: #00ff7f" />
		</g>
		<g id="g14" transform="translate(935.65,96.6665)">
			<path class="pie" d="M-4.25978 -9.0715 A10.0218690273665 10.0218690273665 5.84417 0 1 -2.35608 -9.74098 L0 0 A0 0 5.84417 0 0 0 0 Z" style="fill: #00a9ff" />
		</g>
		<g id="g15" transform="translate(935.65,96.6665)">
			<path class="pie" d="M-2.35608 -9.74098 A10.0218690273665 10.0218690273665 6.04587 0 1 5e-05 -10.02187 L0 0 A0 0 6.04587 0 0 0 0 Z" style="fill: #2a00ff" />
		</g>
		<circle cx="935.65" cy="96.6665" r="10.0218690273665" style="fill:none;stroke:#000000;stroke-width:1" />
		<g >
			<text class="leaf" x="959.65" y="94.6665">Enterococcus</text>
			<text class="leaf" x="959.65" y="105.9665">0.399%</text>
		</g>
		<line style="stroke:#000;stroke-width:2" x1="649.35" x2="792.5" y1="71.111" y2="71.111" />
		<line style="stroke:#000;stroke-width:2" x1="792.5" x2="792.5" y1="45.5555" y2="96.6665" />
		<g id="g16" transform="translate(792.5,71.111)">
			<path class="pie" d="M0 -10.32307 A10.3230735303384 10.3230735303384 0 0 1 5.87318 8.4895 L0 0 A0 0 0 0 0 0 0 Z" style="fill: #ff0000" />
		</g>
		<g id="g17" transform="translate(792.5,71.111)">
			<path class="pie" d="M5.87318 8.4895 A10.3230735303384 10.3230735303384 2.53638 0 1 -6.57951 7.95461 L0 0 A0 0 2.53638 0 0 0 0 Z" style="fill: #ffd400" />
		</g>
		<g id="g18" transform="translate(792.5,71.111)">
			<path class="pie" d="M-6.57951 7.95461 A10.3230735303384 10.3230735303384 3.83266 0 1 -1.66896 -10.18727 L0 0 A0 0 3.83266 0 0 0 0 Z" style="fill: #54ff00" />
		</g>
		<g id="g19" transform="translate(792.5,71.111)">
			<path class="pie" d="M-1.66896 -10.18727 A10.3230735303384 10.3230735303384 6.1208 0 1 -0.99808 -10.27471 L0 0 A0 0 6.1208 0 0 0 0 Z" style="fill: #00ff7f" />
		</g>
		<g id="g20" transform="translate(792.5,71.111)">
			<path class="pie" d="M-0.99808 -10.27471 A10.3230735303384 10.3230735303384 6.18635 0 1 -0.62875 -10.30391 L0 0 A0 0 6.18635 0 0 0 0 Z" style="fill: #00a9ff" />
		</g>
		<g id="g21" transform="translate(792.5,71.111)">
			<path class="pie" d="M-0.62875 -10.30391 A10.3230735303384 10.3230735303384 6.22224 0 1 5e-05 -10.32307 L0 0 A0 0 6.22224 0 0 0 0 Z" style="fill: #2a00ff" />
		</g>
		<circle cx="792.5" cy="71.111" r="10.3230735303384" style="fill:none;stroke:#000000;stroke-width:1" />
		<g >
			<text class="leaf" x="686.28" y="55.811">Enterococcaceae</text>
			<text class="leaf" x="686.28" y="67.111">3.406%</text>
		</g>
		<line style="stroke:#000;stroke-width:2" x1="792.5" x2="935.65" y1="147.7775" y2="147.7775" />
		<g id="g22" transform="translate(935.65,147.7775)">
			<path class="pie" d="M0 -10.39419 A10.3941938126142 10.3941938126142 0 0 1 5.39025 8.88732 L0 0 A0 0 0 0 0 0 0 Z" style="fill: #ff0000" />
		</g>
		<g id="g23" transform="translate(935.65,147.7775)">
			<path class="pie" d="M5.39025 8.88732 A10.3941938126142 10.3941938126142 2.5964 0 1 -8.43223 6.07756 L0 0 A0 0 2.5964 0 0 0 0 Z" style="fill: #ffd400" />
		</g>
		<g id="g24" transform="translate(935.65,147.7775)">
			<path class="pie" d="M-8.43223 6.07756 A10.3941938126142 10.3941938126142 4.08787 0 1 -10.17183 -2.13851 L0 0 A0 0 4.08787 0 0 0 0 Z" style="fill: #54ff00" />
		</g>
		<g id="g25" transform="translate(935.65,147.7775)">
			<path class="pie" d="M-10.17183 -2.13851 A10.3941938126142 10.3941938126142 4.91961 0 1 -9.8484 -3.32389 L0 0 A0 0 4.91961 0 0 0 0 Z" style="fill: #00ff7f" />
		</g>
		<g id="g26" transform="translate(935.65,147.7775)">
			<path class="pie" d="M-9.8484 -3.32389 A10.3941938126142 10.3941938126142 5.03789 0 1 -1.61139 -10.26853 L0 0 A0 0 5.03789 0 0 0 0 Z" style="fill: #00a9ff" />
		</g>
		<g id="g27" transform="translate(935.65,147.7775)">
			<path class="pie" d="M-1.61139 -10.26853 A10.3941938126142 10.3941938126142 6.12753 0 1 5e-05 -10.39419 L0 0 A0 0 6.12753 0 0 0 0 Z" style="fill: #2a00ff" />
		</g>
		<circle cx="935.65" cy="147.7775" r="10.3941938126142" style="fill:none;stroke:#000000;stroke-width:1" />
		<g >
			<text class="leaf" x="959.65" y="145.7775">Lactococcus</text>
			<text class="leaf" x="959.65" y="157.0775">4.116%</text>
		</g>
		<line style="stroke:#000;stroke-width:2" x1="649.35" x2="792.5" y1="147.7775" y2="147.7775" />
		<g id="g28" transform="translate(792.5,147.7775)">
			<path class="pie" d="M0 -10.39908 A10.3990769327705 10.3990769327705 0 0 1 5.31111 8.94052 L0 0 A0 0 0 0 0 0 0 Z" style="fill: #ff0000" />
		</g>
		<g id="g29" transform="translate(792.5,147.7775)">
			<path class="pie" d="M5.31111 8.94052 A10.3990769327705 10.3990769327705 2.60556 0 1 -8.52615 5.95362 L0 0 A0 0 2.60556 0 0 0 0 Z" style="fill: #ffd400" />
		</g>
		<g id="g30" transform="translate(792.5,147.7775)">
			<path class="pie" d="M-8.52615 5.95362 A10.3990769327705 10.3990769327705 4.10282 0 1 -10.15515 -2.23914 L0 0 A0 0 4.10282 0 0 0 0 Z" style="fill: #54ff00" />
		</g>
		<g id="g31" transform="translate(792.5,147.7775)">
			<path class="pie" d="M-10.15515 -2.23914 A10.3990769327705 10.3990769327705 4.92941 0 1 -9.81822 -3.42686 L0 0 A0 0 4.92941 0 0 0 0 Z" style="fill: #00ff7f" />
		</g>
		<g id="g32" transform="translate(792.5,147.7775)">
			<path class="pie" d="M-9.81822 -3.42686 A10.3990769327705 10.3990769327705 5.0482 0 1 -1.60731 -10.27411 L0 0 A0 0 5.0482 0 0 0 0 Z" style="fill: #00a9ff" />
		</g>
		<g id="g33" transform="translate(792.5,147.7775)">
			<path class="pie" d="M-1.60731 -10.27411 A10.3990769327705 10.3990769327705 6.128 0 1 5e-05 -10.39908 L0 0 A0 0 6.128 0 0 0 0 Z" style="fill: #2a00ff" />
		</g>
		<circle cx="792.5" cy="147.7775" r="10.3990769327705" style="fill:none;stroke:#000000;stroke-width:1" />
		<g >
			<text class="leaf" x="682.95" y="132.4775">Streptococcaceae</text>
			<text class="leaf" x="682.95" y="143.7775">4.165%</text>
		</g>
		<line style="stroke:#000;stroke-width:2" x1="506.2" x2="649.35" y1="109.44425" y2="109.44425" />
		<line style="stroke:#000;stroke-width:2" x1="649.35" x2="649.35" y1="71.111" y2="147.7775" />
		<g id="g34" transform="translate(649.35,109.44425)">
			<path class="pie" d="M0 -10.74819 A10.7481937706089 10.7481937706089 0 0 1 5.80887 9.04327 L0 0 A0 0 0 0 0 0 0 Z" style="fill: #ff0000" />
		</g>
		<g id="g35" transform="translate(649.35,109.44425)">
			<path class="pie" d="M5.80887 9.04327 A10.7481937706089 10.7481937706089 2.57062 0 1 -7.93895 7.24546 L0 0 A0 0 2.57062 0 0 0 0 Z" style="fill: #ffd400" />
		</g>
		<g id="g36" transform="translate(649.35,109.44425)">
			<path class="pie" d="M-7.93895 7.24546 A10.7481937706089 10.7481937706089 3.97263 0 1 -7.60185 -7.59839 L0 0 A0 0 3.97263 0 0 0 0 Z" style="fill: #54ff00" />
		</g>
		<g id="g37" transform="translate(649.35,109.44425)">
			<path class="pie" d="M-7.60185 -7.59839 A10.7481937706089 10.7481937706089 5.49756 0 1 -6.86527 -8.26993 L0 0 A0 0 5.49756 0 0 0 0 Z" style="fill: #00ff7f" />
		</g>
		<g id="g38" transform="translate(649.35,109.44425)">
			<path class="pie" d="M-6.86527 -8.26993 A10.7481937706089 10.7481937706089 5.59033 0 1 -1.23882 -10.67656 L0 0 A0 0 5.59033 0 0 0 0 Z" style="fill: #00a9ff" />
		</g>
		<g id="g39" transform="translate(649.35,109.44425)">
			<path class="pie" d="M-1.23882 -10.67656 A10.7481937706089 10.7481937706089 6.16767 0 1 5e-05 -10.74819 L0 0 A0 0 6.16767 0 0 0 0 Z" style="fill: #2a00ff" />
		</g>
		<circle cx="649.35" cy="109.44425" r="10.7481937706089" style="fill:none;stroke:#000000;stroke-width:1" />
		<g >
			<text class="leaf" x="553.72" y="94.14425">Lactobacillales</text>
			<text class="leaf" x="553.72" y="105.44425">7.649%</text>
		</g>
		<line style="stroke:#000;stroke-width:2" x1="363.05" x2="506.2" y1="109.44425" y2="109.44425" />
		<g id="g40" transform="translate(506.2,109.44425)">
			<path class="pie" d="M0 -10.74875 A10.7487450906265 10.7487450906265 0 0 1 5.81161 9.04216 L0 0 A0 0 0 0 0 0 0 Z" style="fill: #ff0000" />
		</g>
		<g id="g41" transform="translate(506.2,109.44425)">
			<path class="pie" d="M5.81161 9.04216 A10.7487450906265 10.7487450906265 2.57035 0 1 -7.93595 7.24957 L0 0 A0 0 2.57035 0 0 0 0 Z" style="fill: #ffd400" />
		</g>
		<g id="g42" transform="translate(506.2,109.44425)">
			<path class="pie" d="M-7.93595 7.24957 A10.7487450906265 10.7487450906265 3.97216 0 1 -7.60436 -7.59666 L0 0 A0 0 3.97216 0 0 0 0 Z" style="fill: #54ff00" />
		</g>
		<g id="g43" transform="translate(506.2,109.44425)">
			<path class="pie" d="M-7.60436 -7.59666 A10.7487450906265 10.7487450906265 5.49728 0 1 -6.86454 -8.27125 L0 0 A0 0 5.49728 0 0 0 0 Z" style="fill: #00ff7f" />
		</g>
		<g id="g44" transform="translate(506.2,109.44425)">
			<path class="pie" d="M-6.86454 -8.27125 A10.7487450906265 10.7487450906265 5.59046 0 1 -1.23985 -10.677 L0 0 A0 0 5.59046 0 0 0 0 Z" style="fill: #00a9ff" />
		</g>
		<g id="g45" transform="translate(506.2,109.44425)">
			<path class="pie" d="M-1.23985 -10.677 A10.7487450906265 10.7487450906265 6.16758 0 1 5e-05 -10.74875 L0 0 A0 0 6.16758 0 0 0 0 Z" style="fill: #2a00ff" />
		</g>
		<circle cx="506.2" cy="109.44425" r="10.7487450906265" style="fill:none;stroke:#000000;stroke-width:1" />
		<g >
			<text class="leaf" x="448.3" y="94.14425">Bacilli</text>
			<text class="leaf" x="448.3" y="105.44425">7.655%</text>
		</g>
		<line style="stroke:#000;stroke-width:2" x1="219.9" x2="363.05" y1="109.44425" y2="109.44425" />
		<g id="g46" transform="translate(363.05,109.44425)">
			<path class="pie" d="M0 -10.74911 A10.7491126373049 10.7491126373049 0 0 1 5.81994 9.03724 L0 0 A0 0 0 0 0 0 0 Z" style="fill: #ff0000" />
		</g>
		<g id="g47" transform="translate(363.05,109.44425)">
			<path class="pie" d="M5.81994 9.03724 A10.7491126373049 10.7491126373049 2.56945 0 1 -7.92541 7.26163 L0 0 A0 0 2.56945 0 0 0 0 Z" style="fill: #ffd400" />
		</g>
		<g id="g48" transform="translate(363.05,109.44425)">
			<path class="pie" d="M-7.92541 7.26163 A10.7491126373049 10.7491126373049 3.97067 0 1 -7.62079 -7.5807 L0 0 A0 0 3.97067 0 0 0 0 Z" style="fill: #54ff00" />
		</g>
		<g id="g49" transform="translate(363.05,109.44425)">
			<path class="pie" d="M-7.62079 -7.5807 A10.7491126373049 10.7491126373049 5.49515 0 1 -6.88139 -8.25772 L0 0 A0 0 5.49515 0 0 0 0 Z" style="fill: #00ff7f" />
		</g>
		<g id="g50" transform="translate(363.05,109.44425)">
			<path class="pie" d="M-6.88139 -8.25772 A10.7491126373049 10.7491126373049 5.58845 0 1 -1.23935 -10.67743 L0 0 A0 0 5.58845 0 0 0 0 Z" style="fill: #00a9ff" />
		</g>
		<g id="g51" transform="translate(363.05,109.44425)">
			<path class="pie" d="M-1.23935 -10.67743 A10.7491126373049 10.7491126373049 6.16763 0 1 5e-05 -10.74911 L0 0 A0 0 6.16763 0 0 0 0 Z" style="fill: #2a00ff" />
		</g>
		<circle cx="363.05" cy="109.44425" r="10.7491126373049" style="fill:none;stroke:#000000;stroke-width:1" />
		<g >
			<text class="leaf" x="288.52" y="94.14425">Firmicutes</text>
			<text class="leaf" x="288.52" y="105.44425">7.659%</text>
		</g>
		<line style="stroke:#000;stroke-width:2" x1="935.65" x2="1078.8" y1="198.8885" y2="198.8885" />
		<g id="g52" transform="translate(1078.8,198.8885)">
			<path class="pie" d="M0 -10.09997 A10.0999726965325 10.0999726965325 0 0 1 3.13067 -9.60252 L0 0 A0 0 0 0 0 0 0 Z" style="fill: #ff0000" />
		</g>
		<g id="g53" transform="translate(1078.8,198.8885)">
			<path class="pie" d="M3.13067 -9.60252 A10.0999726965325 10.0999726965325 0.31516 0 1 9.4605 3.53672 L0 0 A0 0 0.31516 0 0 0 0 Z" style="fill: #ffd400" />
		</g>
		<g id="g54" transform="translate(1078.8,198.8885)">
			<path class="pie" d="M9.4605 3.53672 A10.0999726965325 10.0999726965325 1.92855 0 1 -9.81042 2.40107 L0 0 A0 0 1.92855 0 0 0 0 Z" style="fill: #54ff00" />
		</g>
		<g id="g55" transform="translate(1078.8,198.8885)">
			<path class="pie" d="M-9.81042 2.40107 A10.0999726965325 10.0999726965325 4.47236 0 1 -10.09054 0.43637 L0 0 A0 0 4.47236 0 0 0 0 Z" style="fill: #00ff7f" />
		</g>
		<g id="g56" transform="translate(1078.8,198.8885)">
			<path class="pie" d="M-10.09054 0.43637 A10.0999726965325 10.0999726965325 4.66917 0 1 -0.28766 -10.09588 L0 0 A0 0 4.66917 0 0 0 0 Z" style="fill: #00a9ff" />
		</g>
		<g id="g57" transform="translate(1078.8,198.8885)">
			<path class="pie" d="M-0.28766 -10.09588 A10.0999726965325 10.0999726965325 6.2547 0 1 5e-05 -10.09997 L0 0 A0 0 6.2547 0 0 0 0 Z" style="fill: #2a00ff" />
		</g>
		<circle cx="1078.8" cy="198.8885" r="10.0999726965325" style="fill:none;stroke:#000000;stroke-width:1" />
		<g >
			<text class="leaf" x="1102.8" y="196.8885">farmeri</text>
			<text class="leaf" x="1102.8" y="208.1885">1.179%</text>
		</g>
		<line style="stroke:#000;stroke-width:2" x1="792.5" x2="935.65" y1="198.8885" y2="198.8885" />
		<g id="g58" transform="translate(935.65,198.8885)">
			<path class="pie" d="M0 -10.10635 A10.1063522567366 10.1063522567366 0 0 1 3.15638 -9.60082 L0 0 A0 0 0 0 0 0 0 Z" style="fill: #ff0000" />
		</g>
		<g id="g59" transform="translate(935.65,198.8885)">
			<path class="pie" d="M3.15638 -9.60082 A10.1063522567366 10.1063522567366 0.31763 0 1 9.50153 3.44373 L0 0 A0 0 0.31763 0 0 0 0 Z" style="fill: #ffd400" />
		</g>
		<g id="g60" transform="translate(935.65,198.8885)">
			<path class="pie" d="M9.50153 3.44373 A10.1063522567366 10.1063522567366 1.91851 0 1 -9.72614 2.74599 L0 0 A0 0 1.91851 0 0 0 0 Z" style="fill: #54ff00" />
		</g>
		<g id="g61" transform="translate(935.65,198.8885)">
			<path class="pie" d="M-9.72614 2.74599 A10.1063522567366 10.1063522567366 4.43722 0 1 -10.07784 0.75857 L0 0 A0 0 4.43722 0 0 0 0 Z" style="fill: #00ff7f" />
		</g>
		<g id="g62" transform="translate(935.65,198.8885)">
			<path class="pie" d="M-10.07784 0.75857 A10.1063522567366 10.1063522567366 4.63726 0 1 -0.3128 -10.10151 L0 0 A0 0 4.63726 0 0 0 0 Z" style="fill: #00a9ff" />
		</g>
		<g id="g63" transform="translate(935.65,198.8885)">
			<path class="pie" d="M-0.3128 -10.10151 A10.1063522567366 10.1063522567366 6.25223 0 1 5e-05 -10.10635 L0 0 A0 0 6.25223 0 0 0 0 Z" style="fill: #2a00ff" />
		</g>
		<circle cx="935.65" cy="198.8885" r="10.1063522567366" style="fill:none;stroke:#000000;stroke-width:1" />
		<g >
			<text class="leaf" x="856.69" y="183.5885">Trabulsiella</text>
			<text class="leaf" x="856.69" y="194.8885">1.243%</text>
		</g>
		<line style="stroke:#000;stroke-width:2" x1="935.65" x2="1078.8" y1="249.9995" y2="249.9995" />
		<g id="g64" transform="translate(1078.8,249.9995)">
			<path class="pie" d="M0 -10.01914 A10.0191386806124 10.0191386806124 0 0 1 0.37543 -10.0121 L0 0 A0 0 0 0 0 0 0 Z" style="fill: #ff0000" />
		</g>
		<g id="g65" transform="translate(1078.8,249.9995)">
			<path class="pie" d="M0.37543 -10.0121 A10.0191386806124 10.0191386806124 0.03748 0 1 0.51986 -10.00564 L0 0 A0 0 0.03748 0 0 0 0 Z" style="fill: #ffd400" />
		</g>
		<g id="g66" transform="translate(1078.8,249.9995)">
			<path class="pie" d="M0.51986 -10.00564 A10.0191386806124 10.0191386806124 0.05191 0 1 3.39306 -9.4271 L0 0 A0 0 0.05191 0 0 0 0 Z" style="fill: #54ff00" />
		</g>
		<g id="g67" transform="translate(1078.8,249.9995)">
			<path class="pie" d="M3.39306 -9.4271 A10.0191386806124 10.0191386806124 0.34549 0 1 9.18779 3.99596 L0 0 A0 0 0.34549 0 0 0 0 Z" style="fill: #00ff7f" />
		</g>
		<g id="g68" transform="translate(1078.8,249.9995)">
			<path class="pie" d="M9.18779 3.99596 A10.0191386806124 10.0191386806124 1.98104 1 1 -4.63201 -8.88412 L0 0 A0 0 1.98104 1 0 0 0 Z" style="fill: #00a9ff" />
		</g>
		<g id="g69" transform="translate(1078.8,249.9995)">
			<path class="pie" d="M-4.63201 -8.88412 A10.0191386806124 10.0191386806124 5.80258 0 1 5e-05 -10.01914 L0 0 A0 0 5.80258 0 0 0 0 Z" style="fill: #2a00ff" />
		</g>
		<circle cx="1078.8" cy="249.9995" r="10.0191386806124" style="fill:none;stroke:#000000;stroke-width:1" />
		<g >
			<text class="leaf" x="1102.8" y="247.9995">marcescens</text>
			<text class="leaf" x="1102.8" y="259.2995">0.372%</text>
		</g>
		<line style="stroke:#000;stroke-width:2" x1="792.5" x2="935.65" y1="249.9995" y2="249.9995" />
		<g id="g70" transform="translate(935.65,249.9995)">
			<path class="pie" d="M0 -10.06359 A10.0635855753681 10.0635855753681 0 0 1 6.56718 -7.62547 L0 0 A0 0 0 0 0 0 0 Z" style="fill: #ff0000" />
		</g>
		<g id="g71" transform="translate(935.65,249.9995)">
			<path class="pie" d="M6.56718 -7.62547 A10.0635855753681 10.0635855753681 0.71097 0 1 8.65237 -5.13928 L0 0 A0 0 0.71097 0 0 0 0 Z" style="fill: #ffd400" />
		</g>
		<g id="g72" transform="translate(935.65,249.9995)">
			<path class="pie" d="M8.65237 -5.13928 A10.0635855753681 10.0635855753681 1.03482 0 1 -6.35821 7.80058 L0 0 A0 0 1.03482 0 0 0 0 Z" style="fill: #54ff00" />
		</g>
		<g id="g73" transform="translate(935.65,249.9995)">
			<path class="pie" d="M-6.35821 7.80058 A10.0635855753681 10.0635855753681 3.82547 0 1 -9.95186 1.49541 L0 0 A0 0 3.82547 0 0 0 0 Z" style="fill: #00ff7f" />
		</g>
		<g id="g74" transform="translate(935.65,249.9995)">
			<path class="pie" d="M-9.95186 1.49541 A10.0635855753681 10.0635855753681 4.56324 0 1 -2.51517 -9.74421 L0 0 A0 0 4.56324 0 0 0 0 Z" style="fill: #00a9ff" />
		</g>
		<g id="g75" transform="translate(935.65,249.9995)">
			<path class="pie" d="M-2.51517 -9.74421 A10.0635855753681 10.0635855753681 6.03058 0 1 5e-05 -10.06359 L0 0 A0 0 6.03058 0 0 0 0 Z" style="fill: #2a00ff" />
		</g>
		<circle cx="935.65" cy="249.9995" r="10.0635855753681" style="fill:none;stroke:#000000;stroke-width:1" />
		<g >
			<text class="leaf" x="874.43" y="234.6995">Serratia</text>
			<text class="leaf" x="874.43" y="245.9995">0.816%</text>
		</g>
		<line style="stroke:#000;stroke-width:2" x1="792.5" x2="935.65" y1="301.1105" y2="301.1105" />
		<g id="g76" transform="translate(935.65,301.1105)">
			<path class="pie" d="M0 -10 A10 10 0 0 1 0.20559 -9.99789 L0 0 A0 0 0 0 0 0 0 Z" style="fill: #ff0000" />
		</g>
		<g id="g77" transform="translate(935.65,301.1105)">
			<path class="pie" d="M0.20559 -9.99789 A10 10 0.02056 0 1 0.83762 -9.96486 L0 0 A0 0 0.02056 0 0 0 0 Z" style="fill: #ffd400" />
		</g>
		<g id="g78" transform="translate(935.65,301.1105)">
			<path class="pie" d="M0.83762 -9.96486 A10 10 0.08386 0 1 1.17488 -9.93074 L0 0 A0 0 0.08386 0 0 0 0 Z" style="fill: #54ff00" />
		</g>
		<g id="g79" transform="translate(935.65,301.1105)">
			<path class="pie" d="M1.17488 -9.93074 A10 10 0.11776 0 1 9.28402 -3.71576 L0 0 A0 0 0.11776 0 0 0 0 Z" style="fill: #00ff7f" />
		</g>
		<g id="g80" transform="translate(935.65,301.1105)">
			<path class="pie" d="M9.28402 -3.71576 A10 10 1.19009 0 1 4.71969 8.81615 L0 0 A0 0 1.19009 0 0 0 0 Z" style="fill: #00a9ff" />
		</g>
		<g id="g81" transform="translate(935.65,301.1105)">
			<path class="pie" d="M4.71969 8.81615 A10 10 2.65007 1 1 5e-05 -10 L0 0 A0 0 2.65007 1 0 0 0 Z" style="fill: #2a00ff" />
		</g>
		<circle cx="935.65" cy="301.1105" r="10" style="fill:none;stroke:#000000;stroke-width:1" />
		<g >
			<text class="leaf" x="959.65" y="299.1105">Providencia</text>
			<text class="leaf" x="959.65" y="310.4105">0.181%</text>
		</g>
		<line style="stroke:#000;stroke-width:2" x1="935.65" x2="1078.8" y1="352.2215" y2="352.2215" />
		<g id="g82" transform="translate(1078.8,352.2215)">
			<path class="pie" d="M0 -10.16516 A10.1651597252851 10.1651597252851 0 0 1 7.82063 6.49371 L0 0 A0 0 0 0 0 0 0 Z" style="fill: #ff0000" />
		</g>
		<g id="g83" transform="translate(1078.8,352.2215)">
			<path class="pie" d="M7.82063 6.49371 A10.1651597252851 10.1651597252851 2.26376 0 1 5.33539 8.6524 L0 0 A0 0 2.26376 0 0 0 0 Z" style="fill: #ffd400" />
		</g>
		<g id="g84" transform="translate(1078.8,352.2215)">
			<path class="pie" d="M5.33539 8.6524 A10.1651597252851 10.1651597252851 2.58903 0 1 -10.16186 -0.25889 L0 0 A0 0 2.58903 0 0 0 0 Z" style="fill: #54ff00" />
		</g>
		<g id="g85" transform="translate(1078.8,352.2215)">
			<path class="pie" d="M-10.16186 -0.25889 A10.1651597252851 10.1651597252851 4.73786 0 1 -9.42981 -3.79595 L0 0 A0 0 4.73786 0 0 0 0 Z" style="fill: #00ff7f" />
		</g>
		<g id="g86" transform="translate(1078.8,352.2215)">
			<path class="pie" d="M-9.42981 -3.79595 A10.1651597252851 10.1651597252851 5.09509 0 1 -5.24627 -8.70673 L0 0 A0 0 5.09509 0 0 0 0 Z" style="fill: #00a9ff" />
		</g>
		<g id="g87" transform="translate(1078.8,352.2215)">
			<path class="pie" d="M-5.24627 -8.70673 A10.1651597252851 10.1651597252851 5.74089 0 1 5e-05 -10.16516 L0 0 A0 0 5.74089 0 0 0 0 Z" style="fill: #2a00ff" />
		</g>
		<circle cx="1078.8" cy="352.2215" r="10.1651597252851" style="fill:none;stroke:#000000;stroke-width:1" />
		<g >
			<text class="leaf" x="1102.8" y="350.2215">enterica</text>
			<text class="leaf" x="1102.8" y="361.5215">1.83%</text>
		</g>
		<line style="stroke:#000;stroke-width:2" x1="792.5" x2="935.65" y1="352.2215" y2="352.2215" />
		<g id="g88" transform="translate(935.65,352.2215)">
			<path class="pie" d="M0 -10.18648 A10.1864774326339 10.1864774326339 0 0 1 7.52292 6.86804 L0 0 A0 0 0 0 0 0 0 Z" style="fill: #ff0000" />
		</g>
		<g id="g89" transform="translate(935.65,352.2215)">
			<path class="pie" d="M7.52292 6.86804 A10.1864774326339 10.1864774326339 2.31072 0 1 3.97649 9.37827 L0 0 A0 0 2.31072 0 0 0 0 Z" style="fill: #ffd400" />
		</g>
		<g id="g90" transform="translate(935.65,352.2215)">
			<path class="pie" d="M3.97649 9.37827 A10.1864774326339 10.1864774326339 2.74056 0 1 -10.18335 -0.25251 L0 0 A0 0 2.74056 0 0 0 0 Z" style="fill: #54ff00" />
		</g>
		<g id="g91" transform="translate(935.65,352.2215)">
			<path class="pie" d="M-10.18335 -0.25251 A10.1864774326339 10.1864774326339 4.73718 0 1 -9.47043 -3.75169 L0 0 A0 0 4.73718 0 0 0 0 Z" style="fill: #00ff7f" />
		</g>
		<g id="g92" transform="translate(935.65,352.2215)">
			<path class="pie" d="M-9.47043 -3.75169 A10.1864774326339 10.1864774326339 5.08957 0 1 -5.19914 -8.75975 L0 0 A0 0 5.08957 0 0 0 0 Z" style="fill: #00a9ff" />
		</g>
		<g id="g93" transform="translate(935.65,352.2215)">
			<path class="pie" d="M-5.19914 -8.75975 A10.1864774326339 10.1864774326339 5.74754 0 1 5e-05 -10.18648 L0 0 A0 0 5.74754 0 0 0 0 Z" style="fill: #2a00ff" />
		</g>
		<circle cx="935.65" cy="352.2215" r="10.1864774326339" style="fill:none;stroke:#000000;stroke-width:1" />
		<g >
			<text class="leaf" x="858.91" y="336.9215">Salmonella</text>
			<text class="leaf" x="858.91" y="348.2215">2.042%</text>
		</g>
		<line style="stroke:#000;stroke-width:2" x1="935.65" x2="1078.8" y1="403.3325" y2="403.3325" />
		<g id="g94" transform="translate(1078.8,403.3325)">
			<path class="pie" d="M0 -10.02988 A10.0298762942894 10.0298762942894 0 0 1 6.96119 7.22082 L0 0 A0 0 0 0 0 0 0 Z" style="fill: #ff0000" />
		</g>
		<g id="g95" transform="translate(1078.8,403.3325)">
			<path class="pie" d="M6.96119 7.22082 A10.0298762942894 10.0298762942894 2.3745 0 1 -10.00306 0.73292 L0 0 A0 0 2.3745 0 0 0 0 Z" style="fill: #ffd400" />
		</g>
		<g id="g96" transform="translate(1078.8,403.3325)">
			<path class="pie" d="M-10.00306 0.73292 A10.0298762942894 10.0298762942894 4.63925 0 1 -7.76732 -6.34564 L0 0 A0 0 4.63925 0 0 0 0 Z" style="fill: #54ff00" />
		</g>
		<g id="g97" transform="translate(1078.8,403.3325)">
			<path class="pie" d="M-7.76732 -6.34564 A10.0298762942894 10.0298762942894 5.39739 0 1 -6.43819 -7.69078 L0 0 A0 0 5.39739 0 0 0 0 Z" style="fill: #00ff7f" />
		</g>
		<g id="g98" transform="translate(1078.8,403.3325)">
			<path class="pie" d="M-6.43819 -7.69078 A10.0298762942894 10.0298762942894 5.58621 0 1 -1.97459 -9.83359 L0 0 A0 0 5.58621 0 0 0 0 Z" style="fill: #00a9ff" />
		</g>
		<g id="g99" transform="translate(1078.8,403.3325)">
			<path class="pie" d="M-1.97459 -9.83359 A10.0298762942894 10.0298762942894 6.08502 0 1 5e-05 -10.02988 L0 0 A0 0 6.08502 0 0 0 0 Z" style="fill: #2a00ff" />
		</g>
		<circle cx="1078.8" cy="403.3325" r="10.0298762942894" style="fill:none;stroke:#000000;stroke-width:1" />
		<g >
			<text class="leaf" x="1102.8" y="401.3325">oxytoca</text>
			<text class="leaf" x="1102.8" y="412.6325">0.479%</text>
		</g>
		<line style="stroke:#000;stroke-width:2" x1="792.5" x2="935.65" y1="403.3325" y2="403.3325" />
		<g id="g100" transform="translate(935.65,403.3325)">
			<path class="pie" d="M0 -16.90956 A16.9095625144393 16.9095625144393 0 0 1 13.30312 -10.43841 L0 0 A0 0 0 0 0 0 0 Z" style="fill: #ff0000" />
		</g>
		<g id="g101" transform="translate(935.65,403.3325)">
			<path class="pie" d="M13.30312 -10.43841 A16.9095625144393 16.9095625144393 0.90548 0 1 14.31175 9.00595 L0 0 A0 0 0.90548 0 0 0 0 Z" style="fill: #ffd400" />
		</g>
		<g id="g102" transform="translate(935.65,403.3325)">
			<path class="pie" d="M14.31175 9.00595 A16.9095625144393 16.9095625144393 2.13246 0 1 -1.13677 16.87131 L0 0 A0 0 2.13246 0 0 0 0 Z" style="fill: #54ff00" />
		</g>
		<g id="g103" transform="translate(935.65,403.3325)">
			<path class="pie" d="M-1.13677 16.87131 A16.9095625144393 16.9095625144393 3.20887 0 1 -13.81139 9.75596 L0 0 A0 0 3.20887 0 0 0 0 Z" style="fill: #00ff7f" />
		</g>
		<g id="g104" transform="translate(935.65,403.3325)">
			<path class="pie" d="M-13.81139 9.75596 A16.9095625144393 16.9095625144393 4.0974 0 1 -15.31777 -7.16236 L0 0 A0 0 4.0974 0 0 0 0 Z" style="fill: #00a9ff" />
		</g>
		<g id="g105" transform="translate(935.65,403.3325)">
			<path class="pie" d="M-15.31777 -7.16236 A16.9095625144393 16.9095625144393 5.14977 0 1 8e-05 -16.90956 L0 0 A0 0 5.14977 0 0 0 0 Z" style="fill: #2a00ff" />
		</g>
		<circle cx="935.65" cy="403.3325" r="16.9095625144393" style="fill:none;stroke:#000000;stroke-width:1" />
		<g >
			<text class="leaf" x="865.01" y="388.0325">Klebsiella</text>
			<text class="leaf" x="865.01" y="399.3325">69.152%</text>
		</g>
		<line style="stroke:#000;stroke-width:2" x1="792.5" x2="935.65" y1="454.4435" y2="454.4435" />
		<g id="g106" transform="translate(935.65,454.4435)">
			<path class="pie" d="M0 -10.78621 A10.786208598492 10.786208598492 0 0 1 4.23926 -9.91821 L0 0 A0 0 0 0 0 0 0 Z" style="fill: #ff0000" />
		</g>
		<g id="g107" transform="translate(935.65,454.4435)">
			<path class="pie" d="M4.23926 -9.91821 A10.786208598492 10.786208598492 0.40392 0 1 5.02156 -9.54601 L0 0 A0 0 0.40392 0 0 0 0 Z" style="fill: #ffd400" />
		</g>
		<g id="g108" transform="translate(935.65,454.4435)">
			<path class="pie" d="M5.02156 -9.54601 A10.786208598492 10.786208598492 0.48426 0 1 7.64705 -7.6069 L0 0 A0 0 0.48426 0 0 0 0 Z" style="fill: #54ff00" />
		</g>
		<g id="g109" transform="translate(935.65,454.4435)">
			<path class="pie" d="M7.64705 -7.6069 A10.786208598492 10.786208598492 0.78803 0 1 -5.20341 9.44811 L0 0 A0 0 0.78803 0 0 0 0 Z" style="fill: #00ff7f" />
		</g>
		<g id="g110" transform="translate(935.65,454.4435)">
			<path class="pie" d="M-5.20341 9.44811 A10.786208598492 10.786208598492 3.645 0 1 -10.77732 0.4379 L0 0 A0 0 3.645 0 0 0 0 Z" style="fill: #00a9ff" />
		</g>
		<g id="g111" transform="translate(935.65,454.4435)">
			<path class="pie" d="M-10.77732 0.4379 A10.786208598492 10.786208598492 4.67178 0 1 5e-05 -10.78621 L0 0 A0 0 4.67178 0 0 0 0 Z" style="fill: #2a00ff" />
		</g>
		<circle cx="935.65" cy="454.4435" r="10.786208598492" style="fill:none;stroke:#000000;stroke-width:1" />
		<g >
			<text class="leaf" x="959.65" y="452.4435">Citrobacter</text>
			<text class="leaf" x="959.65" y="463.7435">8.029%</text>
		</g>
		<line style="stroke:#000;stroke-width:2" x1="649.35" x2="792.5" y1="326.666" y2="326.666" />
		<line style="stroke:#000;stroke-width:2" x1="792.5" x2="792.5" y1="198.8885" y2="454.4435" />
		<g id="g112" transform="translate(792.5,326.666)">
			<path class="pie" d="M0 -19.1632 A19.1632012265558 19.1632012265558 0 0 1 15.00021 -11.92569 L0 0 A0 0 0 0 0 0 0 Z" style="fill: #ff0000" />
		</g>
		<g id="g113" transform="translate(792.5,326.666)">
			<path class="pie" d="M15.00021 -11.92569 A19.1632012265558 19.1632012265558 0.89909 0 1 18.04537 6.44925 L0 0 A0 0 0.89909 0 0 0 0 Z" style="fill: #ffd400" />
		</g>
		<g id="g114" transform="translate(792.5,326.666)">
			<path class="pie" d="M18.04537 6.44925 A19.1632012265558 19.1632012265558 1.91404 0 1 4.39942 18.65136 L0 0 A0 0 1.91404 0 0 0 0 Z" style="fill: #54ff00" />
		</g>
		<g id="g115" transform="translate(792.5,326.666)">
			<path class="pie" d="M4.39942 18.65136 A19.1632012265558 19.1632012265558 2.90995 0 1 -15.10501 11.79267 L0 0 A0 0 2.90995 0 0 0 0 Z" style="fill: #00ff7f" />
		</g>
		<g id="g116" transform="translate(792.5,326.666)">
			<path class="pie" d="M-15.10501 11.79267 A19.1632012265558 19.1632012265558 4.04952 0 1 -17.41293 -8.00114 L0 0 A0 0 4.04952 0 0 0 0 Z" style="fill: #00a9ff" />
		</g>
		<g id="g117" transform="translate(792.5,326.666)">
			<path class="pie" d="M-17.41293 -8.00114 A19.1632012265558 19.1632012265558 5.14311 0 1 9e-05 -19.1632 L0 0 A0 0 5.14311 0 0 0 0 Z" style="fill: #2a00ff" />
		</g>
		<circle cx="792.5" cy="326.666" r="19.1632012265558" style="fill:none;stroke:#000000;stroke-width:1" />
		<g >
			<text class="leaf" x="676.29" y="311.366">Enterobacteriaceae</text>
			<text class="leaf" x="676.29" y="322.666">91.647%</text>
		</g>
		<line style="stroke:#000;stroke-width:2" x1="506.2" x2="649.35" y1="326.666" y2="326.666" />
		<g id="g118" transform="translate(649.35,326.666)">
			<path class="pie" d="M0 -19.1632 A19.1632012265558 19.1632012265558 0 0 1 15.00021 -11.92569 L0 0 A0 0 0 0 0 0 0 Z" style="fill: #ff0000" />
		</g>
		<g id="g119" transform="translate(649.35,326.666)">
			<path class="pie" d="M15.00021 -11.92569 A19.1632012265558 19.1632012265558 0.89909 0 1 18.04537 6.44925 L0 0 A0 0 0.89909 0 0 0 0 Z" style="fill: #ffd400" />
		</g>
		<g id="g120" transform="translate(649.35,326.666)">
			<path class="pie" d="M18.04537 6.44925 A19.1632012265558 19.1632012265558 1.91404 0 1 4.39942 18.65136 L0 0 A0 0 1.91404 0 0 0 0 Z" style="fill: #54ff00" />
		</g>
		<g id="g121" transform="translate(649.35,326.666)">
			<path class="pie" d="M4.39942 18.65136 A19.1632012265558 19.1632012265558 2.90995 0 1 -15.10501 11.79267 L0 0 A0 0 2.90995 0 0 0 0 Z" style="fill: #00ff7f" />
		</g>
		<g id="g122" transform="translate(649.35,326.666)">
			<path class="pie" d="M-15.10501 11.79267 A19.1632012265558 19.1632012265558 4.04952 0 1 -17.41293 -8.00114 L0 0 A0 0 4.04952 0 0 0 0 Z" style="fill: #00a9ff" />
		</g>
		<g id="g123" transform="translate(649.35,326.666)">
			<path class="pie" d="M-17.41293 -8.00114 A19.1632012265558 19.1632012265558 5.14311 0 1 9e-05 -19.1632 L0 0 A0 0 5.14311 0 0 0 0 Z" style="fill: #2a00ff" />
		</g>
		<circle cx="649.35" cy="326.666" r="19.1632012265558" style="fill:none;stroke:#000000;stroke-width:1" />
		<g >
			<text class="leaf" x="541.49" y="311.366">Enterobacteriales</text>
			<text class="leaf" x="541.49" y="322.666">91.647%</text>
		</g>
		<line style="stroke:#000;stroke-width:2" x1="363.05" x2="506.2" y1="326.666" y2="326.666" />
		<g id="g124" transform="translate(506.2,326.666)">
			<path class="pie" d="M0 -19.18562 A19.1856215739399 19.1856215739399 0 0 1 15.03016 -11.92402 L0 0 A0 0 0 0 0 0 0 Z" style="fill: #ff0000" />
		</g>
		<g id="g125" transform="translate(506.2,326.666)">
			<path class="pie" d="M15.03016 -11.92402 A19.1856215739399 19.1856215739399 0.90013 0 1 18.05944 6.47648 L0 0 A0 0 0.90013 0 0 0 0 Z" style="fill: #ffd400" />
		</g>
		<g id="g126" transform="translate(506.2,326.666)">
			<path class="pie" d="M18.05944 6.47648 A19.1856215739399 19.1856215739399 1.91513 0 1 4.35021 18.68592 L0 0 A0 0 1.91513 0 0 0 0 Z" style="fill: #54ff00" />
		</g>
		<g id="g127" transform="translate(506.2,326.666)">
			<path class="pie" d="M4.35021 18.68592 A19.1856215739399 19.1856215739399 2.91286 0 1 -15.14956 11.77195 L0 0 A0 0 2.91286 0 0 0 0 Z" style="fill: #00ff7f" />
		</g>
		<g id="g128" transform="translate(506.2,326.666)">
			<path class="pie" d="M-15.14956 11.77195 A19.1856215739399 19.1856215739399 4.0518 0 1 -17.41467 -8.05092 L0 0 A0 0 4.0518 0 0 0 0 Z" style="fill: #00a9ff" />
		</g>
		<g id="g129" transform="translate(506.2,326.666)">
			<path class="pie" d="M-17.41467 -8.05092 A19.1856215739399 19.1856215739399 5.14543 0 1 9e-05 -19.18562 L0 0 A0 0 5.14543 0 0 0 0 Z" style="fill: #2a00ff" />
		</g>
		<circle cx="506.2" cy="326.666" r="19.1856215739399" style="fill:none;stroke:#000000;stroke-width:1" />
		<g >
			<text class="leaf" x="396.12" y="298.666">Gammaproteobacteria</text>
			<text class="leaf" x="396.12" y="309.966">91.871%</text>
		</g>
		<line style="stroke:#000;stroke-width:2" x1="219.9" x2="363.05" y1="326.666" y2="326.666" />
		<g id="g130" transform="translate(363.05,326.666)">
			<path class="pie" d="M0 -19.19268 A19.1926837208325 19.1926837208325 0 0 1 15.03832 -11.9251 L0 0 A0 0 0 0 0 0 0 Z" style="fill: #ff0000" />
		</g>
		<g id="g131" transform="translate(363.05,326.666)">
			<path class="pie" d="M15.03832 -11.9251 A19.1926837208325 19.1926837208325 0.90035 0 1 18.0666 6.47742 L0 0 A0 0 0.90035 0 0 0 0 Z" style="fill: #ffd400" />
		</g>
		<g id="g132" transform="translate(363.05,326.666)">
			<path class="pie" d="M18.0666 6.47742 A19.1926837208325 19.1926837208325 1.91505 0 1 4.31573 18.70117 L0 0 A0 0 1.91505 0 0 0 0 Z" style="fill: #54ff00" />
		</g>
		<g id="g133" transform="translate(363.05,326.666)">
			<path class="pie" d="M4.31573 18.70117 A19.1926837208325 19.1926837208325 2.91479 0 1 -15.17079 11.75612 L0 0 A0 0 2.91479 0 0 0 0 Z" style="fill: #00ff7f" />
		</g>
		<g id="g134" transform="translate(363.05,326.666)">
			<path class="pie" d="M-15.17079 11.75612 A19.1926837208325 19.1926837208325 4.05313 0 1 -17.41528 -8.06643 L0 0 A0 0 4.05313 0 0 0 0 Z" style="fill: #00a9ff" />
		</g>
		<g id="g135" transform="translate(363.05,326.666)">
			<path class="pie" d="M-17.41528 -8.06643 A19.1926837208325 19.1926837208325 5.14615 0 1 9e-05 -19.19268 L0 0 A0 0 5.14615 0 0 0 0 Z" style="fill: #2a00ff" />
		</g>
		<circle cx="363.05" cy="326.666" r="19.1926837208325" style="fill:none;stroke:#000000;stroke-width:1" />
		<g >
			<text class="leaf" x="269.08" y="311.366">Proteobacteria</text>
			<text class="leaf" x="269.08" y="322.666">91.941%</text>
		</g>
		<line style="stroke:#000;stroke-width:2" x1="76.75" x2="219.9" y1="218.055125" y2="218.055125" />
		<line style="stroke:#000;stroke-width:2" x1="219.9" x2="219.9" y1="109.44425" y2="326.666" />
		<g id="g136" transform="translate(219.9,218.055125)">
			<path class="pie" d="M0 -20 A20 20 0 0 1 17.32053 -9.99996 L0 0 A0 0 0 0 0 0 0 Z" style="fill: #ff0000" />
		</g>
		<g id="g137" transform="translate(219.9,218.055125)">
			<path class="pie" d="M17.32053 -9.99996 A20 20 1.0472 0 1 17.32046 10.00008 L0 0 A0 0 1.0472 0 0 0 0 Z" style="fill: #ffd400" />
		</g>
		<g id="g138" transform="translate(219.9,218.055125)">
			<path class="pie" d="M17.32046 10.00008 A20 20 2.0944 0 1 5e-05 20 L0 0 A0 0 2.0944 0 0 0 0 Z" style="fill: #54ff00" />
		</g>
		<g id="g139" transform="translate(219.9,218.055125)">
			<path class="pie" d="M5e-05 20 A20 20 3.14159 0 1 -17.32051 10 L0 0 A0 0 3.14159 0 0 0 0 Z" style="fill: #00ff7f" />
		</g>
		<g id="g140" transform="translate(219.9,218.055125)">
			<path class="pie" d="M-17.32051 10 A20 20 4.18879 0 1 -17.32049 -10.00004 L0 0 A0 0 4.18879 0 0 0 0 Z" style="fill: #00a9ff" />
		</g>
		<g id="g141" transform="translate(219.9,218.055125)">
			<path class="pie" d="M-17.32049 -10.00004 A20 20 5.23599 0 1 9e-05 -20 L0 0 A0 0 5.23599 0 0 0 0 Z" style="fill: #2a00ff" />
		</g>
		<circle cx="219.9" cy="218.055125" r="20" style="fill:none;stroke:#000000;stroke-width:1" />
		<g >
			<text class="leaf" x="156.45" y="202.755125">Bacteria</text>
			<text class="leaf" x="156.45" y="214.055125">100%</text>
		</g>
		<line style="stroke:#000;stroke-width:2" x1="76.75" x2="76.75" y1="218.055125" y2="218.055125" />
		<text class="leaf" x="40" y="221.705125">Mirobe</text>
	</g>
	<g class="legend" id="legend142">
		<g >
			<g >
				<use height="20" width="20" x="30" xlink:href="#symbol143" y="30" />
			</g>
			<text style="font-size:12px;font-family:Arial;fill:#000000;font-weight:normal;font:arial;font-style:normal;font-face:normal;" x="54" y="44.38">SS1</text>
			<g >
				<use height="20" width="20" x="80.66" xlink:href="#symbol144" y="30" />
			</g>
			<text style="font-style:normal;font:arial;font-face:normal;font-family:Arial;font-size:12px;fill:#000000;font-weight:normal;" x="104.66" y="44.38">SS2</text>
			<g >
				<use height="20" width="20" x="131.32" xlink:href="#symbol145" y="30" />
			</g>
			<text style="font-weight:normal;fill:#000000;font-family:Arial;font-size:12px;font-face:normal;font-style:normal;font:arial;" x="155.32" y="44.38">SS3</text>
			<g >
				<use height="20" width="20" x="181.98" xlink:href="#symbol146" y="30" />
			</g>
			<text style="font-weight:normal;fill:#000000;font-family:Arial;font-size:12px;font-face:normal;font:arial;font-style:normal;" x="205.98" y="44.38">Tr1</text>
			<g >
				<use height="20" width="20" x="227.52" xlink:href="#symbol147" y="30" />
			</g>
			<text style="font-style:normal;font:arial;font-face:normal;font-family:Arial;font-size:12px;fill:#000000;font-weight:normal;" x="251.52" y="44.38">Tr2</text>
			<g >
				<use height="20" width="20" x="273.06" xlink:href="#symbol148" y="30" />
			</g>
			<text style="font-style:normal;font:arial;font-face:normal;font-size:12px;font-family:Arial;fill:#000000;font-weight:normal;" x="297.06" y="44.38">Tr3</text>
		</g>
	</g>
</svg>