<svg height="600" id="sbv1" width="800" xmlns="http://www.w3.org/2000/svg" xmlns:svg="http://www.w3.org/2000/svg" xmlns:xlink="http://www.w3.org/1999/xlink">
	<title id="sbv-title">The graph of SBV ggplot2</title>
	<desc id="sbv-desc">This graph was generated by SBV which was written by Peng. E-mail is aipeng0520@163.com</desc>
	<defs id="defs2">
		<symbol class="symbol" id="symbol6" viewBox="0 0 20 20">
			<rect height="18" style="fill-opacity: 1; fill: #fb6a4a; stroke-width: 1; stroke: #000" width="18" x="1" y="1" />
		</symbol>
		<symbol class="symbol" id="symbol7" viewBox="0 0 20 20">
			<rect height="18" style="stroke: #000; fill-opacity: 1; fill: #74c476; stroke-width: 1" width="18" x="1" y="1" />
		</symbol>
		<style type="text/css"><![CDATA[path {
stroke-width: 1;
fill: none;
stroke: #000000;
}

line.bgline {
stroke: #ffffff;
stroke-opacity: 1;
stroke-width: 2;
}

line.mark {
stroke: #000000;
stroke-width: 2;
}

line {
stroke: #000000;
stroke-width: 1;
}

line.axis {
stroke-width: 1;
fill: #000000;
stroke: #000000;
}

rect {
stroke-width: 0;
}

svg {
fill-opacity: 1;
stroke-width: 1;
fill: none;
stroke: #000000;
}

text.title {
font-size: 18px;
font-weight: bold;
}

text {
stroke-width: 0;
fill: #000000;
font-style: normal;
fill-opacity: 1;
font-size: 12px;
font-family: Arial;
font-weight: normal;
}

text.freq {
font-size: 14px;
font-family: Georgia;
font-weight: bold;
}

text.subtitle {
font-weight: bold;
font-size: 14px;
}

]]></style>
	</defs>
	<g class="ggplot2" id="ggplot23">
		<rect class="background" height="547.24" style="fill: #dddddd; stroke-width: 0" width="689.24" x="40.76" y="20" />
		<g class="border" id="g4" />
		<g class="axis" transform="translate(40.76,567.24)">
			<g >
				<line class="bgline" x1="137.85" x2="137.85" y1="0" y2="-547.24" />
				<text style="font-size:12px;font-weight:normal;font-family:Arial;fill:#000000;font-style:normal;" x="64.93" y="12.76">A</text>
				<line class="bgline" x1="275.7" x2="275.7" y1="0" y2="-547.24" />
				<text style="font-family:Arial;font-weight:normal;font-size:12px;font-style:normal;fill:#000000;" x="202.78" y="12.76">B</text>
				<line class="bgline" x1="413.54" x2="413.54" y1="0" y2="-547.24" />
				<text style="fill:#000000;font-style:normal;font-size:12px;font-family:Arial;font-weight:normal;" x="340.29" y="12.76">C</text>
				<line class="bgline" x1="551.39" x2="551.39" y1="0" y2="-547.24" />
				<text style="font-weight:normal;font-family:Arial;font-size:12px;font-style:normal;fill:#000000;" x="478.14" y="12.76">D</text>
				<line class="bgline" x1="689.24" x2="689.24" y1="0" y2="-547.24" />
				<text style="font-family:Arial;font-weight:normal;font-size:12px;font-style:normal;fill:#000000;" x="616.32" y="12.76">E</text>
			</g>
		</g>
		<g class="axis" transform="translate(40.76,567.24)">
			<g transform="rotate(-90)">
				<line class="tick" x1="21.05" x2="21.05" y1="0" y2="-8" />
				<line class="bgline" x1="21.05" x2="21.05" y1="0" y2="689.24" />
				<text style="font-weight:normal;font-family:Arial;font-size:12px;font-style:normal;fill:#000000;" x="17.72" y="-12">0</text>
				<line class="tick" x1="126.29" x2="126.29" y1="0" y2="-8" />
				<line class="bgline" x1="126.29" x2="126.29" y1="0" y2="689.24" />
				<text style="fill:#000000;font-style:normal;font-size:12px;font-family:Arial;font-weight:normal;" x="119.62" y="-12">10</text>
				<line class="tick" x1="231.52" x2="231.52" y1="0" y2="-8" />
				<line class="bgline" x1="231.52" x2="231.52" y1="0" y2="689.24" />
				<text style="font-weight:normal;font-family:Arial;font-size:12px;font-style:normal;fill:#000000;" x="224.85" y="-12">20</text>
				<line class="tick" x1="336.76" x2="336.76" y1="0" y2="-8" />
				<line class="bgline" x1="336.76" x2="336.76" y1="0" y2="689.24" />
				<text style="font-size:12px;font-weight:normal;font-family:Arial;fill:#000000;font-style:normal;" x="330.09" y="-12">30</text>
				<line class="tick" x1="442" x2="442" y1="0" y2="-8" />
				<line class="bgline" x1="442" x2="442" y1="0" y2="689.24" />
				<text style="font-style:normal;fill:#000000;font-family:Arial;font-weight:normal;font-size:12px;" x="435.33" y="-12">40</text>
			</g>
		</g>
		<rect height="84.1908" style="stroke: #000000; fill: #fb6a4a; stroke-width: 0" width="55.1392" x="54.5448" y="462.0015" />
		<rect height="210.4769" style="stroke: #000000; fill: #74c476; stroke-width: 0" width="55.1392" x="109.684" y="335.7154" />
		<rect height="189.4292" style="stroke: #000000; stroke-width: 0; fill: #fb6a4a" width="55.1392" x="192.3928" y="356.7631" />
		<rect height="70.194" style="fill: #74c476; stroke-width: 0; stroke: #000000" width="55.1392" x="247.532" y="475.9983" />
		<rect height="420.9538" style="stroke: #000000; stroke-width: 0; fill: #fb6a4a" width="55.1392" x="330.2408" y="125.2385" />
		<rect height="175.4325" style="stroke: #000000; stroke-width: 0; fill: #74c476" width="55.1392" x="385.38" y="370.7598" />
		<rect height="52.6192" style="stroke: #000000; fill: #fb6a4a; stroke-width: 0" width="55.1392" x="468.0888" y="493.5731" />
		<rect height="238.5756" style="stroke: #000000; stroke-width: 0; fill: #74c476" width="55.1392" x="523.228" y="307.6167" />
		<rect height="129.759" style="stroke: #000000; stroke-width: 0; fill: #fb6a4a" width="55.1392" x="605.9368" y="416.4333" />
		<rect height="350.7598" style="stroke: #000000; fill: #74c476; stroke-width: 0" width="55.1392" x="661.076" y="195.4325" />
		<line class="errbar" style="stroke:#000000;stroke-width:1" x1="65.5726" x2="98.6562" y1="444.8162" y2="444.8162" />
		<line class="errbar" style="stroke:#000000;stroke-width:1" x1="65.5726" x2="98.6562" y1="479.1869" y2="479.1869" />
		<line class="errbar" style="stroke:#000000;stroke-width:1" x1="82.1144" x2="82.1144" y1="444.8162" y2="479.1869" />
		<line class="errbar" style="stroke:#000000;stroke-width:1" x1="120.7118" x2="153.7954" y1="318.53" y2="318.53" />
		<line class="errbar" style="stroke:#000000;stroke-width:1" x1="120.7118" x2="153.7954" y1="352.9008" y2="352.9008" />
		<line class="errbar" style="stroke:#000000;stroke-width:1" x1="137.2536" x2="137.2536" y1="318.53" y2="352.9008" />
		<line class="errbar" style="stroke:#000000;stroke-width:1" x1="203.4206" x2="236.5042" y1="339.5777" y2="339.5777" />
		<line class="errbar" style="stroke:#000000;stroke-width:1" x1="203.4206" x2="236.5042" y1="373.9484" y2="373.9484" />
		<line class="errbar" style="stroke:#000000;stroke-width:1" x1="219.9624" x2="219.9624" y1="339.5777" y2="373.9484" />
		<line class="errbar" style="stroke:#000000;stroke-width:1" x1="258.5598" x2="291.6434" y1="462.9074" y2="462.9074" />
		<line class="errbar" style="stroke:#000000;stroke-width:1" x1="258.5598" x2="291.6434" y1="489.1585" y2="489.1585" />
		<line class="errbar" style="stroke:#000000;stroke-width:1" x1="275.1016" x2="275.1016" y1="462.9074" y2="489.1585" />
		<line class="errbar" style="stroke:#000000;stroke-width:1" x1="341.2686" x2="374.3522" y1="108.0531" y2="108.0531" />
		<line class="errbar" style="stroke:#000000;stroke-width:1" x1="341.2686" x2="374.3522" y1="142.4238" y2="142.4238" />
		<line class="errbar" style="stroke:#000000;stroke-width:1" x1="357.8104" x2="357.8104" y1="108.0531" y2="142.4238" />
		<line class="errbar" style="stroke:#000000;stroke-width:1" x1="396.4078" x2="429.4914" y1="357.669" y2="357.669" />
		<line class="errbar" style="stroke:#000000;stroke-width:1" x1="396.4078" x2="429.4914" y1="383.9201" y2="383.9201" />
		<line class="errbar" style="stroke:#000000;stroke-width:1" x1="412.9496" x2="412.9496" y1="357.669" y2="383.9201" />
		<line class="errbar" style="stroke:#000000;stroke-width:1" x1="479.1166" x2="512.2002" y1="476.3877" y2="476.3877" />
		<line class="errbar" style="stroke:#000000;stroke-width:1" x1="479.1166" x2="512.2002" y1="510.7584" y2="510.7584" />
		<line class="errbar" style="stroke:#000000;stroke-width:1" x1="495.6584" x2="495.6584" y1="476.3877" y2="510.7584" />
		<line class="errbar" style="stroke:#000000;stroke-width:1" x1="534.2558" x2="567.3394" y1="280.0298" y2="280.0298" />
		<line class="errbar" style="stroke:#000000;stroke-width:1" x1="534.2558" x2="567.3394" y1="335.2731" y2="335.2731" />
		<line class="errbar" style="stroke:#000000;stroke-width:1" x1="550.7976" x2="550.7976" y1="280.0298" y2="335.2731" />
		<line class="errbar" style="stroke:#000000;stroke-width:1" x1="616.9646" x2="650.0482" y1="394.7741" y2="394.7741" />
		<line class="errbar" style="stroke:#000000;stroke-width:1" x1="616.9646" x2="650.0482" y1="438.023" y2="438.023" />
		<line class="errbar" style="stroke:#000000;stroke-width:1" x1="633.5064" x2="633.5064" y1="394.7741" y2="438.023" />
		<line class="errbar" style="stroke:#000000;stroke-width:1" x1="672.1038" x2="705.1874" y1="169.1467" y2="169.1467" />
		<line class="errbar" style="stroke:#000000;stroke-width:1" x1="672.1038" x2="705.1874" y1="221.6489" y2="221.6489" />
		<line class="errbar" style="stroke:#000000;stroke-width:1" x1="688.6456" x2="688.6456" y1="169.1467" y2="221.6489" />
		<g class="legend" id="legend5">
			<g >
				<g >
					<use height="20" width="20" x="739" xlink:href="#symbol6" y="271.62" />
				</g>
				<text style="font-style:normal;fill:#000000;font:arial;font-family:Arial;font-weight:normal;font-face:normal;font-size:12px;" x="763" y="286">G1</text>
				<g >
					<use height="20" width="20" x="739" xlink:href="#symbol7" y="295.62" />
				</g>
				<text style="font-face:normal;font-size:12px;font-family:Arial;font-weight:normal;fill:#000000;font:arial;font-style:normal;" x="763" y="310">G2</text>
			</g>
		</g>
	</g>
</svg>