<svg height="480" id="sbv1" width="560" xmlns="http://www.w3.org/2000/svg" xmlns:svg="http://www.w3.org/2000/svg" xmlns:xlink="http://www.w3.org/1999/xlink">
	<title id="sbv-title">The graph of SBV pie</title>
	<desc id="sbv-desc">This graph was generated by SBV which was written by Peng. E-mail is aipeng0520@163.com</desc>
	<defs id="defs2">
		<symbol class="symbol" id="symbol13" viewBox="0 0 20 20">
			<rect height="18" style="fill: #cb181d; fill-opacity: 1; stroke: #000000; stroke-width: 1" width="18" x="1" y="1" />
		</symbol>
		<symbol class="symbol" id="symbol14" viewBox="0 0 20 20">
			<rect height="18" style="fill: #fb6a4a; fill-opacity: 1; stroke: #000000; stroke-width: 1" width="18" x="1" y="1" />
		</symbol>
		<symbol class="symbol" id="symbol15" viewBox="0 0 20 20">
			<rect height="18" style="fill: #fcae91; fill-opacity: 1; stroke: #000000; stroke-width: 1" width="18" x="1" y="1" />
		</symbol>
		<symbol class="symbol" id="symbol16" viewBox="0 0 20 20">
			<rect height="18" style="fill: #fee5d9; fill-opacity: 1; stroke: #000000; stroke-width: 1" width="18" x="1" y="1" />
		</symbol>
		<style type="text/css"><![CDATA[path.pie {
stroke: #ffffff;
stroke-width: 0;
}

rect.background {
stroke-width: 0;
}

line {
stroke-width: 1;
stroke: #000000;
}

text.title {
font-style: normal;
font-size: 20px;
font-weight: bold;
}

text {
fill: #000000;
font-style: normal;
font-family: Arial;
stroke-width: 0;
font-weight: normal;
font-size: 12px;
}

svg {
fill: none;
stroke: #000000;
stroke-width: 1;
}

]]></style>
	</defs>
	<g class="pie" id="pie_3">
		<text class="title" x="168.04" y="38.6">test title</text>
		<g id="g4" transform="translate(206.35,251.3)">
			<path class="pie" d="M0 -167.35 A167.35 167.35 0 0 1 160.2635 48.18334 L47.88273 14.39598 A50 50 0 0 0 0 -50 Z" style="fill: #cb181d; filter: url(#filter5)" transform="translate(12.03707,-8.95037)" />
		</g>
		<text class="label" x="257.94" y="181.88">NAME1 59 29.6%</text>
		<g id="g6" transform="translate(206.35,251.3)">
			<path class="pie" d="M160.2635 48.18334 A167.35 167.35 1.86285 0 1 -158.66246 53.21885 L-47.40438 15.90046 A50 50 1.86285 0 0 47.88273 14.39598 Z" style="fill: #fb6a4a; filter: url(#filter7)" />
		</g>
		<text class="label" x="160.41" y="364.34">NAME2 80 40.2%</text>
		<g id="g8" transform="translate(206.35,251.3)">
			<path class="pie" d="M-158.66246 53.21885 A167.35 167.35 4.38876 0 1 -159.48287 -50.70736 L-47.6495 -15.15009 A50 50 4.38876 0 0 -47.40438 15.90046 Z" style="fill: #fcae91; filter: url(#filter9)" />
		</g>
		<text class="label" x="50.02" y="256.54">NAME3 20 10.1%</text>
		<g id="g10" transform="translate(206.35,251.3)">
			<path class="pie" d="M-159.48287 -50.70736 A167.35 167.35 5.02023 0 1 0.00079 -167.35 L0.00023 -50 A50 50 5.02023 0 0 -47.6495 -15.15009 Z" style="fill: #fee5d9; filter: url(#filter11)" />
		</g>
		<text class="label" x="94.54" y="167.96">NAME4 40 20.1%</text>
		<g class="legend" id="legend12">
			<g >
				<g >
					<use height="20" width="20" x="401.7" xlink:href="#symbol13" y="205.3" />
				</g>
				<text style="font-weight:normal;font-size:12px;font-family:Arial;font:arial;font-face:normal;fill:#000000;font-style:normal;" x="425.7" y="219.68">NAME1: 59 (29.65%)</text>
				<g >
					<use height="20" width="20" x="401.7" xlink:href="#symbol14" y="229.3" />
				</g>
				<text style="font-style:normal;fill:#000000;font-face:normal;font:arial;font-family:Arial;font-size:12px;font-weight:normal;" x="425.7" y="243.68">NAME2: 80 (40.20%)</text>
				<g >
					<use height="20" width="20" x="401.7" xlink:href="#symbol15" y="253.3" />
				</g>
				<text style="font-style:normal;fill:#000000;font-face:normal;font:arial;font-family:Arial;font-size:12px;font-weight:normal;" x="425.7" y="267.68">NAME3: 20 (10.05%)</text>
				<g >
					<use height="20" width="20" x="401.7" xlink:href="#symbol16" y="277.3" />
				</g>
				<text style="font-weight:normal;font-size:12px;font-family:Arial;font:arial;font-face:normal;font-style:normal;fill:#000000;" x="425.7" y="291.68">NAME4: 40 (20.10%)</text>
			</g>
		</g>
	</g>
	<defs >
		<filter id="filter5">
			<feOffset dx="3" dy="3" in="SourceAlpha" result="offOut" />
			<feGaussianBlur in="offOut" result="blurOut" stdDeviation="4" />
			<feBlend in="SourceGraphic" in2="blurOut" />
		</filter>
	</defs>
	<defs >
		<filter id="filter7">
			<feOffset dx="3" dy="3" in="SourceAlpha" result="offOut" />
			<feGaussianBlur in="offOut" result="blurOut" stdDeviation="4" />
			<feBlend in="SourceGraphic" in2="blurOut" />
		</filter>
	</defs>
	<defs >
		<filter id="filter9">
			<feOffset dx="3" dy="3" in="SourceAlpha" result="offOut" />
			<feGaussianBlur in="offOut" result="blurOut" stdDeviation="4" />
			<feBlend in="SourceGraphic" in2="blurOut" />
		</filter>
	</defs>
	<defs >
		<filter id="filter11">
			<feOffset dx="3" dy="3" in="SourceAlpha" result="offOut" />
			<feGaussianBlur in="offOut" result="blurOut" stdDeviation="4" />
			<feBlend in="SourceGraphic" in2="blurOut" />
		</filter>
	</defs>
</svg>