<svg height="600" id="sbv1" width="800" xmlns="http://www.w3.org/2000/svg" xmlns:svg="http://www.w3.org/2000/svg" xmlns:xlink="http://www.w3.org/1999/xlink">
	<title id="sbv-title">The graph of SBV ggplot2</title>
	<desc id="sbv-desc">This graph was generated by SBV which was written by Peng. E-mail is aipeng0520@163.com</desc>
	<defs id="defs2">
		<clipPath clipPathUnits="UserSpaceOnUse" id="xy_coord_limit" style="evenodd">
			<rect height="507.88" width="721.02" x="58.98" y="41.14" />
		</clipPath>
		<style type="text/css"><![CDATA[text.title {
font-size: 18px;
font-weight: bold;
}

text.subtitle {
font-size: 14px;
font-weight: bold;
}

text {
font-size: 12px;
font-weight: normal;
font-family: Arial;
font-style: normal;
fill-opacity: 1;
fill: #000000;
stroke-width: 0;
}

text.freq {
font-size: 14px;
font-weight: bold;
font-family: Georgia;
}

path {
fill: none;
stroke-width: 1;
stroke: #000000;
}

rect {
stroke-width: 0;
}

svg {
stroke: #000000;
fill-opacity: 1;
fill: none;
stroke-width: 1;
}

line.mark {
stroke: #000000;
stroke-width: 2;
}

line.axis {
stroke: #000000;
stroke-width: 1;
fill: #000000;
}

line {
stroke-width: 1;
stroke: #000000;
}

line.bgline {
stroke-opacity: 1;
stroke-width: 2;
stroke: #ffffff;
}

]]></style>
	</defs>
	<g class="ggplot2" id="ggplot23">
		<rect class="background" height="507.88" style="fill: #dddddd; stroke-width: 0" width="721.02" x="58.98" y="41.14" />
		<g class="border" id="g4" />
		<g class="axis" transform="translate(58.98,549.02)">
			<line class="bgline" x1="240.34" x2="240.34" y1="0" y2="-507.88" />
			<text style="fill:#000000;font-family:Arial;font-style:normal;font-size:12px;font-weight:normal;" x="101.17" y="12.76">nameA</text>
			<line class="bgline" x1="480.68" x2="480.68" y1="0" y2="-507.88" />
			<text style="font-size:12px;font-weight:normal;font-family:Arial;font-style:normal;fill:#000000;" x="341.51" y="12.76">nameB</text>
			<line class="bgline" x1="721.02" x2="721.02" y1="0" y2="-507.88" />
			<text style="fill:#000000;font-weight:normal;font-size:12px;font-style:normal;font-family:Arial;" x="581.51" y="12.76">nameC</text>
		</g>
		<g class="axis" transform="rotate(-90)">
			<line class="tick" x1="11.81" x2="11.81" y1="0" y2="-8" />
			<line class="bgline" x1="11.81" x2="11.81" y1="0" y2="721.02" />
			<text style="font-style:normal;font-family:Arial;font-weight:normal;font-size:12px;fill:#000000;" x="5.14" y="-12">20</text>
			<line class="tick" x1="129.92" x2="129.92" y1="0" y2="-8" />
			<line class="bgline" x1="129.92" x2="129.92" y1="0" y2="721.02" />
			<text style="fill:#000000;font-weight:normal;font-size:12px;font-style:normal;font-family:Arial;" x="123.25" y="-12">40</text>
			<line class="tick" x1="248.03" x2="248.03" y1="0" y2="-8" />
			<line class="bgline" x1="248.03" x2="248.03" y1="0" y2="721.02" />
			<text style="font-size:12px;font-weight:normal;font-family:Arial;font-style:normal;fill:#000000;" x="241.36" y="-12">60</text>
			<line class="tick" x1="366.15" x2="366.15" y1="0" y2="-8" />
			<line class="bgline" x1="366.15" x2="366.15" y1="0" y2="721.02" />
			<text style="font-style:normal;font-family:Arial;font-weight:normal;font-size:12px;fill:#000000;" x="359.48" y="-12">80</text>
			<line class="tick" x1="484.26" x2="484.26" y1="0" y2="-8" />
			<line class="bgline" x1="484.26" x2="484.26" y1="0" y2="721.02" />
			<text style="fill:#000000;font-family:Arial;font-style:normal;font-size:12px;font-weight:normal;" x="474.25" y="-12">100</text>
		</g>
		<g class="labs">
			<text class="subtitle" x="398.105" y="576">Genes</text>
			<text class="subtitle" transform="rotate(-90,34.22,321.51)" x="34.22" y="321.51">Number</text>
			<text class="title" x="386.03" y="37.14">Boxplot</text>
		</g>
		<g class="main" clip-path="url(#xy_coord_limit)">
			<rect height="76.7725" style="fill: #fee0d2; stroke: #000000; stroke-width: 1" width="144.204" x="107.048" y="495.8698" />
			<line style="stroke: #000000; stroke-width: 2" x1="107.048" x2="251.252" y1="549.02" y2="549.02" />
			<line style="stroke: #000000; stroke-width: 1" x1="179.15" x2="179.15" y1="495.8698" y2="430.9084" />
			<line style="stroke: #000000; stroke-width: 1" x1="179.15" x2="179.15" y1="572.6423" y2="613.9814" />
			<rect height="106.3004" style="fill: #fc9272; stroke: #000000; stroke-width: 1" width="144.204" x="347.388" y="88.3847" />
			<line style="stroke: #000000; stroke-width: 2" x1="347.388" x2="491.592" y1="159.2516" y2="159.2516" />
			<line style="stroke: #000000; stroke-width: 1" x1="419.49" x2="419.49" y1="88.3847" y2="-53.3493000000001" />
			<line style="stroke: #000000; stroke-width: 1" x1="419.49" x2="419.49" y1="194.6851" y2="271.4577" />
			<circle cx="419.49" cy="454.5307" r="2" style="fill: #000" />
			<rect height="88.5838" style="fill: #de2d26; stroke: #000000; stroke-width: 1" width="144.204" x="587.728" y="348.2302" />
			<line style="stroke: #000000; stroke-width: 2" x1="587.728" x2="731.932" y1="383.6637" y2="383.6637" />
			<line style="stroke: #000000; stroke-width: 1" x1="659.83" x2="659.83" y1="348.2302" y2="253.7409" />
			<line style="stroke: #000000; stroke-width: 1" x1="659.83" x2="659.83" y1="436.814" y2="466.3419" />
		</g>
	</g>
</svg>